<?xml version="1.0" encoding="UTF-8" standalone="no"?>
<!DOCTYPE svg PUBLIC "-//W3C//DTD SVG 1.1//EN"
 "http://www.w3.org/Graphics/SVG/1.1/DTD/svg11.dtd">
<!-- Generated by graphviz version 2.26.3 (20100126.1600)
 -->
<!-- Title: controllers_diagram Pages: 1 -->
<svg width="942pt" height="903pt"
 viewBox="0.00 0.00 942.00 903.00" xmlns="http://www.w3.org/2000/svg" xmlns:xlink="http://www.w3.org/1999/xlink">
<g id="graph1" class="graph" transform="scale(1 1) rotate(0) translate(4 899)">
<title>controllers_diagram</title>
<polygon fill="white" stroke="white" points="-4,5 -4,-899 939,-899 939,5 -4,5"/>
<!-- _diagram_info -->
<g id="node1" class="node"><title>_diagram_info</title>
<text text-anchor="start" x="691" y="-364.3" font-family="Times Roman,serif" font-size="13.00">Controllers diagram</text>
<text text-anchor="start" x="691" y="-347.3" font-family="Times Roman,serif" font-size="13.00">Date: Oct 08 2013 &#45; 12:13</text>
<text text-anchor="start" x="691" y="-330.3" font-family="Times Roman,serif" font-size="13.00">Migration version: 20130731041951</text>
<text text-anchor="start" x="691" y="-313.3" font-family="Times Roman,serif" font-size="13.00">Generated by RailRoady 1.1.0</text>
<text text-anchor="start" x="691" y="-296.3" font-family="Times Roman,serif" font-size="13.00">http://railroady.prestonlee.com</text>
</g>
<!-- ActionsController -->
<g id="node2" class="node"><title>ActionsController</title>
<polyline fill="none" stroke="black" points="13,-397.5 141,-397.5 "/>
<path fill="none" stroke="black" d="M141,-397.5C147,-397.5 153,-403.5 153,-409.5"/>
<polyline fill="none" stroke="black" points="153,-409.5 153,-613.5 "/>
<path fill="none" stroke="black" d="M153,-613.5C153,-619.5 147,-625.5 141,-625.5"/>
<polyline fill="none" stroke="black" points="141,-625.5 13,-625.5 "/>
<path fill="none" stroke="black" d="M13,-625.5C7,-625.5 1,-619.5 1,-613.5"/>
<polyline fill="none" stroke="black" points="1,-613.5 1,-409.5 "/>
<path fill="none" stroke="black" d="M1,-409.5C1,-403.5 7,-397.5 13,-397.5"/>
<text text-anchor="middle" x="77" y="-608.9" font-family="Times Roman,serif" font-size="14.00">ActionsController</text>
<polyline fill="none" stroke="black" points="1,-599.5 153,-599.5 "/>
<polyline fill="none" stroke="black" points="1,-575.5 153,-575.5 "/>
<text text-anchor="start" x="9" y="-558.9" font-family="Times Roman,serif" font-size="14.00">collection_path</text>
<text text-anchor="start" x="9" y="-540.9" font-family="Times Roman,serif" font-size="14.00">collection_url</text>
<text text-anchor="start" x="9" y="-522.9" font-family="Times Roman,serif" font-size="14.00">edit_resource_path</text>
<text text-anchor="start" x="9" y="-504.9" font-family="Times Roman,serif" font-size="14.00">edit_resource_url</text>
<text text-anchor="start" x="9" y="-486.9" font-family="Times Roman,serif" font-size="14.00">new_resource_path</text>
<text text-anchor="start" x="9" y="-468.9" font-family="Times Roman,serif" font-size="14.00">new_resource_url</text>
<text text-anchor="start" x="9" y="-450.9" font-family="Times Roman,serif" font-size="14.00">resource_path</text>
<text text-anchor="start" x="9" y="-432.9" font-family="Times Roman,serif" font-size="14.00">resource_url</text>
<polyline fill="none" stroke="black" points="1,-423.5 153,-423.5 "/>
<text text-anchor="start" x="9" y="-406.9" font-family="Times Roman,serif" font-size="14.00">_layout</text>
</g>
<!-- ApplicationController -->
<g id="node3" class="node"><title>ApplicationController</title>
<polyline fill="none" stroke="black" points="717,-793.5 854,-793.5 "/>
<path fill="none" stroke="black" d="M854,-793.5C860,-793.5 866,-799.5 866,-805.5"/>
<polyline fill="none" stroke="black" points="866,-805.5 866,-881.5 "/>
<path fill="none" stroke="black" d="M866,-881.5C866,-887.5 860,-893.5 854,-893.5"/>
<polyline fill="none" stroke="black" points="854,-893.5 717,-893.5 "/>
<path fill="none" stroke="black" d="M717,-893.5C711,-893.5 705,-887.5 705,-881.5"/>
<polyline fill="none" stroke="black" points="705,-881.5 705,-805.5 "/>
<path fill="none" stroke="black" d="M705,-805.5C705,-799.5 711,-793.5 717,-793.5"/>
<text text-anchor="middle" x="785.5" y="-876.9" font-family="Times Roman,serif" font-size="14.00">ApplicationController</text>
<polyline fill="none" stroke="black" points="705,-867.5 866,-867.5 "/>
<polyline fill="none" stroke="black" points="705,-843.5 866,-843.5 "/>
<polyline fill="none" stroke="black" points="705,-819.5 866,-819.5 "/>
<text text-anchor="start" x="713" y="-802.9" font-family="Times Roman,serif" font-size="14.00">_layout</text>
</g>
<!-- UserRolesController -->
<g id="node4" class="node"><title>UserRolesController</title>
<polyline fill="none" stroke="black" points="13,-133.5 142,-133.5 "/>
<path fill="none" stroke="black" d="M142,-133.5C148,-133.5 154,-139.5 154,-145.5"/>
<polyline fill="none" stroke="black" points="154,-145.5 154,-349.5 "/>
<path fill="none" stroke="black" d="M154,-349.5C154,-355.5 148,-361.5 142,-361.5"/>
<polyline fill="none" stroke="black" points="142,-361.5 13,-361.5 "/>
<path fill="none" stroke="black" d="M13,-361.5C7,-361.5 1,-355.5 1,-349.5"/>
<polyline fill="none" stroke="black" points="1,-349.5 1,-145.5 "/>
<path fill="none" stroke="black" d="M1,-145.5C1,-139.5 7,-133.5 13,-133.5"/>
<text text-anchor="middle" x="77.5" y="-344.9" font-family="Times Roman,serif" font-size="14.00">UserRolesController</text>
<polyline fill="none" stroke="black" points="1,-335.5 154,-335.5 "/>
<polyline fill="none" stroke="black" points="1,-311.5 154,-311.5 "/>
<text text-anchor="start" x="9" y="-294.9" font-family="Times Roman,serif" font-size="14.00">collection_path</text>
<text text-anchor="start" x="9" y="-276.9" font-family="Times Roman,serif" font-size="14.00">collection_url</text>
<text text-anchor="start" x="9" y="-258.9" font-family="Times Roman,serif" font-size="14.00">edit_resource_path</text>
<text text-anchor="start" x="9" y="-240.9" font-family="Times Roman,serif" font-size="14.00">edit_resource_url</text>
<text text-anchor="start" x="9" y="-222.9" font-family="Times Roman,serif" font-size="14.00">new_resource_path</text>
<text text-anchor="start" x="9" y="-204.9" font-family="Times Roman,serif" font-size="14.00">new_resource_url</text>
<text text-anchor="start" x="9" y="-186.9" font-family="Times Roman,serif" font-size="14.00">resource_path</text>
<text text-anchor="start" x="9" y="-168.9" font-family="Times Roman,serif" font-size="14.00">resource_url</text>
<polyline fill="none" stroke="black" points="1,-159.5 154,-159.5 "/>
<text text-anchor="start" x="9" y="-142.9" font-family="Times Roman,serif" font-size="14.00">_layout</text>
</g>
<!-- PeopleController -->
<g id="node5" class="node"><title>PeopleController</title>
<polyline fill="none" stroke="black" points="673,-529.5 801,-529.5 "/>
<path fill="none" stroke="black" d="M801,-529.5C807,-529.5 813,-535.5 813,-541.5"/>
<polyline fill="none" stroke="black" points="813,-541.5 813,-745.5 "/>
<path fill="none" stroke="black" d="M813,-745.5C813,-751.5 807,-757.5 801,-757.5"/>
<polyline fill="none" stroke="black" points="801,-757.5 673,-757.5 "/>
<path fill="none" stroke="black" d="M673,-757.5C667,-757.5 661,-751.5 661,-745.5"/>
<polyline fill="none" stroke="black" points="661,-745.5 661,-541.5 "/>
<path fill="none" stroke="black" d="M661,-541.5C661,-535.5 667,-529.5 673,-529.5"/>
<text text-anchor="middle" x="737" y="-740.9" font-family="Times Roman,serif" font-size="14.00">PeopleController</text>
<polyline fill="none" stroke="black" points="661,-731.5 813,-731.5 "/>
<polyline fill="none" stroke="black" points="661,-707.5 813,-707.5 "/>
<text text-anchor="start" x="669" y="-690.9" font-family="Times Roman,serif" font-size="14.00">collection_path</text>
<text text-anchor="start" x="669" y="-672.9" font-family="Times Roman,serif" font-size="14.00">collection_url</text>
<text text-anchor="start" x="669" y="-654.9" font-family="Times Roman,serif" font-size="14.00">edit_resource_path</text>
<text text-anchor="start" x="669" y="-636.9" font-family="Times Roman,serif" font-size="14.00">edit_resource_url</text>
<text text-anchor="start" x="669" y="-618.9" font-family="Times Roman,serif" font-size="14.00">new_resource_path</text>
<text text-anchor="start" x="669" y="-600.9" font-family="Times Roman,serif" font-size="14.00">new_resource_url</text>
<text text-anchor="start" x="669" y="-582.9" font-family="Times Roman,serif" font-size="14.00">resource_path</text>
<text text-anchor="start" x="669" y="-564.9" font-family="Times Roman,serif" font-size="14.00">resource_url</text>
<polyline fill="none" stroke="black" points="661,-555.5 813,-555.5 "/>
<text text-anchor="start" x="669" y="-538.9" font-family="Times Roman,serif" font-size="14.00">_layout</text>
</g>
<!-- MembershipTypesController -->
<g id="node6" class="node"><title>MembershipTypesController</title>
<polyline fill="none" stroke="black" points="211,-265.5 394,-265.5 "/>
<path fill="none" stroke="black" d="M394,-265.5C400,-265.5 406,-271.5 406,-277.5"/>
<polyline fill="none" stroke="black" points="406,-277.5 406,-481.5 "/>
<path fill="none" stroke="black" d="M406,-481.5C406,-487.5 400,-493.5 394,-493.5"/>
<polyline fill="none" stroke="black" points="394,-493.5 211,-493.5 "/>
<path fill="none" stroke="black" d="M211,-493.5C205,-493.5 199,-487.5 199,-481.5"/>
<polyline fill="none" stroke="black" points="199,-481.5 199,-277.5 "/>
<path fill="none" stroke="black" d="M199,-277.5C199,-271.5 205,-265.5 211,-265.5"/>
<text text-anchor="middle" x="302.5" y="-476.9" font-family="Times Roman,serif" font-size="14.00">MembershipTypesController</text>
<polyline fill="none" stroke="black" points="199,-467.5 406,-467.5 "/>
<polyline fill="none" stroke="black" points="199,-443.5 406,-443.5 "/>
<text text-anchor="start" x="207" y="-426.9" font-family="Times Roman,serif" font-size="14.00">collection_path</text>
<text text-anchor="start" x="207" y="-408.9" font-family="Times Roman,serif" font-size="14.00">collection_url</text>
<text text-anchor="start" x="207" y="-390.9" font-family="Times Roman,serif" font-size="14.00">edit_resource_path</text>
<text text-anchor="start" x="207" y="-372.9" font-family="Times Roman,serif" font-size="14.00">edit_resource_url</text>
<text text-anchor="start" x="207" y="-354.9" font-family="Times Roman,serif" font-size="14.00">new_resource_path</text>
<text text-anchor="start" x="207" y="-336.9" font-family="Times Roman,serif" font-size="14.00">new_resource_url</text>
<text text-anchor="start" x="207" y="-318.9" font-family="Times Roman,serif" font-size="14.00">resource_path</text>
<text text-anchor="start" x="207" y="-300.9" font-family="Times Roman,serif" font-size="14.00">resource_url</text>
<polyline fill="none" stroke="black" points="199,-291.5 406,-291.5 "/>
<text text-anchor="start" x="207" y="-274.9" font-family="Times Roman,serif" font-size="14.00">_layout</text>
</g>
<!-- RolesController -->
<g id="node7" class="node"><title>RolesController</title>
<polyline fill="none" stroke="black" points="695,-23.5 823,-23.5 "/>
<path fill="none" stroke="black" d="M823,-23.5C829,-23.5 835,-29.5 835,-35.5"/>
<polyline fill="none" stroke="black" points="835,-35.5 835,-239.5 "/>
<path fill="none" stroke="black" d="M835,-239.5C835,-245.5 829,-251.5 823,-251.5"/>
<polyline fill="none" stroke="black" points="823,-251.5 695,-251.5 "/>
<path fill="none" stroke="black" d="M695,-251.5C689,-251.5 683,-245.5 683,-239.5"/>
<polyline fill="none" stroke="black" points="683,-239.5 683,-35.5 "/>
<path fill="none" stroke="black" d="M683,-35.5C683,-29.5 689,-23.5 695,-23.5"/>
<text text-anchor="middle" x="759" y="-234.9" font-family="Times Roman,serif" font-size="14.00">RolesController</text>
<polyline fill="none" stroke="black" points="683,-225.5 835,-225.5 "/>
<polyline fill="none" stroke="black" points="683,-201.5 835,-201.5 "/>
<text text-anchor="start" x="691" y="-184.9" font-family="Times Roman,serif" font-size="14.00">collection_path</text>
<text text-anchor="start" x="691" y="-166.9" font-family="Times Roman,serif" font-size="14.00">collection_url</text>
<text text-anchor="start" x="691" y="-148.9" font-family="Times Roman,serif" font-size="14.00">edit_resource_path</text>
<text text-anchor="start" x="691" y="-130.9" font-family="Times Roman,serif" font-size="14.00">edit_resource_url</text>
<text text-anchor="start" x="691" y="-112.9" font-family="Times Roman,serif" font-size="14.00">new_resource_path</text>
<text text-anchor="start" x="691" y="-94.9" font-family="Times Roman,serif" font-size="14.00">new_resource_url</text>
<text text-anchor="start" x="691" y="-76.9" font-family="Times Roman,serif" font-size="14.00">resource_path</text>
<text text-anchor="start" x="691" y="-58.9" font-family="Times Roman,serif" font-size="14.00">resource_url</text>
<polyline fill="none" stroke="black" points="683,-49.5 835,-49.5 "/>
<text text-anchor="start" x="691" y="-32.9" font-family="Times Roman,serif" font-size="14.00">_layout</text>
</g>
<!-- EmployeesController -->
<g id="node8" class="node"><title>EmployeesController</title>
<polyline fill="none" stroke="black" points="255,-529.5 390,-529.5 "/>
<path fill="none" stroke="black" d="M390,-529.5C396,-529.5 402,-535.5 402,-541.5"/>
<polyline fill="none" stroke="black" points="402,-541.5 402,-745.5 "/>
<path fill="none" stroke="black" d="M402,-745.5C402,-751.5 396,-757.5 390,-757.5"/>
<polyline fill="none" stroke="black" points="390,-757.5 255,-757.5 "/>
<path fill="none" stroke="black" d="M255,-757.5C249,-757.5 243,-751.5 243,-745.5"/>
<polyline fill="none" stroke="black" points="243,-745.5 243,-541.5 "/>
<path fill="none" stroke="black" d="M243,-541.5C243,-535.5 249,-529.5 255,-529.5"/>
<text text-anchor="middle" x="322.5" y="-740.9" font-family="Times Roman,serif" font-size="14.00">EmployeesController</text>
<polyline fill="none" stroke="black" points="243,-731.5 402,-731.5 "/>
<polyline fill="none" stroke="black" points="243,-707.5 402,-707.5 "/>
<text text-anchor="start" x="251" y="-690.9" font-family="Times Roman,serif" font-size="14.00">collection_path</text>
<text text-anchor="start" x="251" y="-672.9" font-family="Times Roman,serif" font-size="14.00">collection_url</text>
<text text-anchor="start" x="251" y="-654.9" font-family="Times Roman,serif" font-size="14.00">edit_resource_path</text>
<text text-anchor="start" x="251" y="-636.9" font-family="Times Roman,serif" font-size="14.00">edit_resource_url</text>
<text text-anchor="start" x="251" y="-618.9" font-family="Times Roman,serif" font-size="14.00">new_resource_path</text>
<text text-anchor="start" x="251" y="-600.9" font-family="Times Roman,serif" font-size="14.00">new_resource_url</text>
<text text-anchor="start" x="251" y="-582.9" font-family="Times Roman,serif" font-size="14.00">resource_path</text>
<text text-anchor="start" x="251" y="-564.9" font-family="Times Roman,serif" font-size="14.00">resource_url</text>
<polyline fill="none" stroke="black" points="243,-555.5 402,-555.5 "/>
<text text-anchor="start" x="251" y="-538.9" font-family="Times Roman,serif" font-size="14.00">_layout</text>
</g>
<!-- ResourcesController -->
<g id="node9" class="node"><title>ResourcesController</title>
<polyline fill="none" stroke="black" points="211,-1.5 342,-1.5 "/>
<path fill="none" stroke="black" d="M342,-1.5C348,-1.5 354,-7.5 354,-13.5"/>
<polyline fill="none" stroke="black" points="354,-13.5 354,-217.5 "/>
<path fill="none" stroke="black" d="M354,-217.5C354,-223.5 348,-229.5 342,-229.5"/>
<polyline fill="none" stroke="black" points="342,-229.5 211,-229.5 "/>
<path fill="none" stroke="black" d="M211,-229.5C205,-229.5 199,-223.5 199,-217.5"/>
<polyline fill="none" stroke="black" points="199,-217.5 199,-13.5 "/>
<path fill="none" stroke="black" d="M199,-13.5C199,-7.5 205,-1.5 211,-1.5"/>
<text text-anchor="middle" x="276.5" y="-212.9" font-family="Times Roman,serif" font-size="14.00">ResourcesController</text>
<polyline fill="none" stroke="black" points="199,-203.5 354,-203.5 "/>
<polyline fill="none" stroke="black" points="199,-179.5 354,-179.5 "/>
<text text-anchor="start" x="207" y="-162.9" font-family="Times Roman,serif" font-size="14.00">collection_path</text>
<text text-anchor="start" x="207" y="-144.9" font-family="Times Roman,serif" font-size="14.00">collection_url</text>
<text text-anchor="start" x="207" y="-126.9" font-family="Times Roman,serif" font-size="14.00">edit_resource_path</text>
<text text-anchor="start" x="207" y="-108.9" font-family="Times Roman,serif" font-size="14.00">edit_resource_url</text>
<text text-anchor="start" x="207" y="-90.9" font-family="Times Roman,serif" font-size="14.00">new_resource_path</text>
<text text-anchor="start" x="207" y="-72.9" font-family="Times Roman,serif" font-size="14.00">new_resource_url</text>
<text text-anchor="start" x="207" y="-54.9" font-family="Times Roman,serif" font-size="14.00">resource_path</text>
<text text-anchor="start" x="207" y="-36.9" font-family="Times Roman,serif" font-size="14.00">resource_url</text>
<polyline fill="none" stroke="black" points="199,-27.5 354,-27.5 "/>
<text text-anchor="start" x="207" y="-10.9" font-family="Times Roman,serif" font-size="14.00">_layout</text>
</g>
<!-- PermissionsController -->
<g id="node10" class="node"><title>PermissionsController</title>
<polyline fill="none" stroke="black" points="57,-661.5 199,-661.5 "/>
<path fill="none" stroke="black" d="M199,-661.5C205,-661.5 211,-667.5 211,-673.5"/>
<polyline fill="none" stroke="black" points="211,-673.5 211,-877.5 "/>
<path fill="none" stroke="black" d="M211,-877.5C211,-883.5 205,-889.5 199,-889.5"/>
<polyline fill="none" stroke="black" points="199,-889.5 57,-889.5 "/>
<path fill="none" stroke="black" d="M57,-889.5C51,-889.5 45,-883.5 45,-877.5"/>
<polyline fill="none" stroke="black" points="45,-877.5 45,-673.5 "/>
<path fill="none" stroke="black" d="M45,-673.5C45,-667.5 51,-661.5 57,-661.5"/>
<text text-anchor="middle" x="128" y="-872.9" font-family="Times Roman,serif" font-size="14.00">PermissionsController</text>
<polyline fill="none" stroke="black" points="45,-863.5 211,-863.5 "/>
<polyline fill="none" stroke="black" points="45,-839.5 211,-839.5 "/>
<text text-anchor="start" x="53" y="-822.9" font-family="Times Roman,serif" font-size="14.00">collection_path</text>
<text text-anchor="start" x="53" y="-804.9" font-family="Times Roman,serif" font-size="14.00">collection_url</text>
<text text-anchor="start" x="53" y="-786.9" font-family="Times Roman,serif" font-size="14.00">edit_resource_path</text>
<text text-anchor="start" x="53" y="-768.9" font-family="Times Roman,serif" font-size="14.00">edit_resource_url</text>
<text text-anchor="start" x="53" y="-750.9" font-family="Times Roman,serif" font-size="14.00">new_resource_path</text>
<text text-anchor="start" x="53" y="-732.9" font-family="Times Roman,serif" font-size="14.00">new_resource_url</text>
<text text-anchor="start" x="53" y="-714.9" font-family="Times Roman,serif" font-size="14.00">resource_path</text>
<text text-anchor="start" x="53" y="-696.9" font-family="Times Roman,serif" font-size="14.00">resource_url</text>
<polyline fill="none" stroke="black" points="45,-687.5 211,-687.5 "/>
<text text-anchor="start" x="53" y="-670.9" font-family="Times Roman,serif" font-size="14.00">_layout</text>
</g>
<!-- RolePermissionsController -->
<g id="node11" class="node"><title>RolePermissionsController</title>
<polyline fill="none" stroke="black" points="453,-265.5 624,-265.5 "/>
<path fill="none" stroke="black" d="M624,-265.5C630,-265.5 636,-271.5 636,-277.5"/>
<polyline fill="none" stroke="black" points="636,-277.5 636,-481.5 "/>
<path fill="none" stroke="black" d="M636,-481.5C636,-487.5 630,-493.5 624,-493.5"/>
<polyline fill="none" stroke="black" points="624,-493.5 453,-493.5 "/>
<path fill="none" stroke="black" d="M453,-493.5C447,-493.5 441,-487.5 441,-481.5"/>
<polyline fill="none" stroke="black" points="441,-481.5 441,-277.5 "/>
<path fill="none" stroke="black" d="M441,-277.5C441,-271.5 447,-265.5 453,-265.5"/>
<text text-anchor="middle" x="538.5" y="-476.9" font-family="Times Roman,serif" font-size="14.00">RolePermissionsController</text>
<polyline fill="none" stroke="black" points="441,-467.5 636,-467.5 "/>
<polyline fill="none" stroke="black" points="441,-443.5 636,-443.5 "/>
<text text-anchor="start" x="449" y="-426.9" font-family="Times Roman,serif" font-size="14.00">collection_path</text>
<text text-anchor="start" x="449" y="-408.9" font-family="Times Roman,serif" font-size="14.00">collection_url</text>
<text text-anchor="start" x="449" y="-390.9" font-family="Times Roman,serif" font-size="14.00">edit_resource_path</text>
<text text-anchor="start" x="449" y="-372.9" font-family="Times Roman,serif" font-size="14.00">edit_resource_url</text>
<text text-anchor="start" x="449" y="-354.9" font-family="Times Roman,serif" font-size="14.00">new_resource_path</text>
<text text-anchor="start" x="449" y="-336.9" font-family="Times Roman,serif" font-size="14.00">new_resource_url</text>
<text text-anchor="start" x="449" y="-318.9" font-family="Times Roman,serif" font-size="14.00">resource_path</text>
<text text-anchor="start" x="449" y="-300.9" font-family="Times Roman,serif" font-size="14.00">resource_url</text>
<polyline fill="none" stroke="black" points="441,-291.5 636,-291.5 "/>
<text text-anchor="start" x="449" y="-274.9" font-family="Times Roman,serif" font-size="14.00">_layout</text>
</g>
<!-- OrganizationsController -->
<g id="node12" class="node"><title>OrganizationsController</title>
<polyline fill="none" stroke="black" points="453,-529.5 611,-529.5 "/>
<path fill="none" stroke="black" d="M611,-529.5C617,-529.5 623,-535.5 623,-541.5"/>
<polyline fill="none" stroke="black" points="623,-541.5 623,-745.5 "/>
<path fill="none" stroke="black" d="M623,-745.5C623,-751.5 617,-757.5 611,-757.5"/>
<polyline fill="none" stroke="black" points="611,-757.5 453,-757.5 "/>
<path fill="none" stroke="black" d="M453,-757.5C447,-757.5 441,-751.5 441,-745.5"/>
<polyline fill="none" stroke="black" points="441,-745.5 441,-541.5 "/>
<path fill="none" stroke="black" d="M441,-541.5C441,-535.5 447,-529.5 453,-529.5"/>
<text text-anchor="middle" x="532" y="-740.9" font-family="Times Roman,serif" font-size="14.00">OrganizationsController</text>
<polyline fill="none" stroke="black" points="441,-731.5 623,-731.5 "/>
<polyline fill="none" stroke="black" points="441,-707.5 623,-707.5 "/>
<text text-anchor="start" x="449" y="-690.9" font-family="Times Roman,serif" font-size="14.00">collection_path</text>
<text text-anchor="start" x="449" y="-672.9" font-family="Times Roman,serif" font-size="14.00">collection_url</text>
<text text-anchor="start" x="449" y="-654.9" font-family="Times Roman,serif" font-size="14.00">edit_resource_path</text>
<text text-anchor="start" x="449" y="-636.9" font-family="Times Roman,serif" font-size="14.00">edit_resource_url</text>
<text text-anchor="start" x="449" y="-618.9" font-family="Times Roman,serif" font-size="14.00">new_resource_path</text>
<text text-anchor="start" x="449" y="-600.9" font-family="Times Roman,serif" font-size="14.00">new_resource_url</text>
<text text-anchor="start" x="449" y="-582.9" font-family="Times Roman,serif" font-size="14.00">resource_path</text>
<text text-anchor="start" x="449" y="-564.9" font-family="Times Roman,serif" font-size="14.00">resource_url</text>
<polyline fill="none" stroke="black" points="441,-555.5 623,-555.5 "/>
<text text-anchor="start" x="449" y="-538.9" font-family="Times Roman,serif" font-size="14.00">_layout</text>
</g>
<!-- MembersController -->
<g id="node13" class="node"><title>MembersController</title>
<polyline fill="none" stroke="black" points="409,-1.5 537,-1.5 "/>
<path fill="none" stroke="black" d="M537,-1.5C543,-1.5 549,-7.5 549,-13.5"/>
<polyline fill="none" stroke="black" points="549,-13.5 549,-217.5 "/>
<path fill="none" stroke="black" d="M549,-217.5C549,-223.5 543,-229.5 537,-229.5"/>
<polyline fill="none" stroke="black" points="537,-229.5 409,-229.5 "/>
<path fill="none" stroke="black" d="M409,-229.5C403,-229.5 397,-223.5 397,-217.5"/>
<polyline fill="none" stroke="black" points="397,-217.5 397,-13.5 "/>
<path fill="none" stroke="black" d="M397,-13.5C397,-7.5 403,-1.5 409,-1.5"/>
<text text-anchor="middle" x="473" y="-212.9" font-family="Times Roman,serif" font-size="14.00">MembersController</text>
<polyline fill="none" stroke="black" points="397,-203.5 549,-203.5 "/>
<polyline fill="none" stroke="black" points="397,-179.5 549,-179.5 "/>
<text text-anchor="start" x="405" y="-162.9" font-family="Times Roman,serif" font-size="14.00">collection_path</text>
<text text-anchor="start" x="405" y="-144.9" font-family="Times Roman,serif" font-size="14.00">collection_url</text>
<text text-anchor="start" x="405" y="-126.9" font-family="Times Roman,serif" font-size="14.00">edit_resource_path</text>
<text text-anchor="start" x="405" y="-108.9" font-family="Times Roman,serif" font-size="14.00">edit_resource_url</text>
<text text-anchor="start" x="405" y="-90.9" font-family="Times Roman,serif" font-size="14.00">new_resource_path</text>
<text text-anchor="start" x="405" y="-72.9" font-family="Times Roman,serif" font-size="14.00">new_resource_url</text>
<text text-anchor="start" x="405" y="-54.9" font-family="Times Roman,serif" font-size="14.00">resource_path</text>
<text text-anchor="start" x="405" y="-36.9" font-family="Times Roman,serif" font-size="14.00">resource_url</text>
<polyline fill="none" stroke="black" points="397,-27.5 549,-27.5 "/>
<text text-anchor="start" x="405" y="-10.9" font-family="Times Roman,serif" font-size="14.00">_layout</text>
</g>
</g>
</svg>
