<?xml version="1.0" encoding="UTF-8" standalone="no"?>
<!DOCTYPE svg PUBLIC "-//W3C//DTD SVG 1.1//EN"
 "http://www.w3.org/Graphics/SVG/1.1/DTD/svg11.dtd">
<!-- Generated by graphviz version 2.26.3 (20100126.1600)
 -->
<!-- Title: controllers_diagram Pages: 1 -->
<svg width="463pt" height="659pt"
 viewBox="0.00 0.00 463.00 659.00" xmlns="http://www.w3.org/2000/svg" xmlns:xlink="http://www.w3.org/1999/xlink">
<g id="graph1" class="graph" transform="scale(1 1) rotate(0) translate(4 655)">
<title>controllers_diagram</title>
<polygon fill="white" stroke="white" points="-4,5 -4,-655 460,-655 460,5 -4,5"/>
<!-- _diagram_info -->
<g id="node1" class="node"><title>_diagram_info</title>
<text text-anchor="start" x="9" y="-498.3" font-family="Times Roman,serif" font-size="13.00">Controllers diagram</text>
<text text-anchor="start" x="9" y="-481.3" font-family="Times Roman,serif" font-size="13.00">Date: Jun 26 2013 &#45; 22:38</text>
<text text-anchor="start" x="9" y="-464.3" font-family="Times Roman,serif" font-size="13.00">Migration version: 20130614035611</text>
<text text-anchor="start" x="9" y="-447.3" font-family="Times Roman,serif" font-size="13.00">Generated by RailRoady 1.1.0</text>
<text text-anchor="start" x="9" y="-430.3" font-family="Times Roman,serif" font-size="13.00">http://railroady.prestonlee.com</text>
</g>
<!-- ApplicationController -->
<g id="node2" class="node"><title>ApplicationController</title>
<polyline fill="none" stroke="black" points="160,-1.5 374,-1.5 "/>
<path fill="none" stroke="black" d="M374,-1.5C380,-1.5 386,-7.5 386,-13.5"/>
<polyline fill="none" stroke="black" points="386,-13.5 386,-91.5 "/>
<path fill="none" stroke="black" d="M386,-91.5C386,-97.5 380,-103.5 374,-103.5"/>
<polyline fill="none" stroke="black" points="374,-103.5 160,-103.5 "/>
<path fill="none" stroke="black" d="M160,-103.5C154,-103.5 148,-97.5 148,-91.5"/>
<polyline fill="none" stroke="black" points="148,-91.5 148,-13.5 "/>
<path fill="none" stroke="black" d="M148,-13.5C148,-7.5 154,-1.5 160,-1.5"/>
<text text-anchor="middle" x="267" y="-86.9" font-family="Times Roman,serif" font-size="14.00">ApplicationController</text>
<polyline fill="none" stroke="black" points="148,-77.5 386,-77.5 "/>
<text text-anchor="start" x="156" y="-60.9" font-family="Times Roman,serif" font-size="14.00">_one_time_conditions_valid_14?</text>
<polyline fill="none" stroke="black" points="148,-51.5 386,-51.5 "/>
<polyline fill="none" stroke="black" points="148,-27.5 386,-27.5 "/>
<text text-anchor="start" x="156" y="-10.9" font-family="Times Roman,serif" font-size="14.00">_layout</text>
</g>
<!-- PeopleController -->
<g id="node3" class="node"><title>PeopleController</title>
<polyline fill="none" stroke="black" points="286,-148.5 414,-148.5 "/>
<path fill="none" stroke="black" d="M414,-148.5C420,-148.5 426,-154.5 426,-160.5"/>
<polyline fill="none" stroke="black" points="426,-160.5 426,-364.5 "/>
<path fill="none" stroke="black" d="M426,-364.5C426,-370.5 420,-376.5 414,-376.5"/>
<polyline fill="none" stroke="black" points="414,-376.5 286,-376.5 "/>
<path fill="none" stroke="black" d="M286,-376.5C280,-376.5 274,-370.5 274,-364.5"/>
<polyline fill="none" stroke="black" points="274,-364.5 274,-160.5 "/>
<path fill="none" stroke="black" d="M274,-160.5C274,-154.5 280,-148.5 286,-148.5"/>
<text text-anchor="middle" x="350" y="-359.9" font-family="Times Roman,serif" font-size="14.00">PeopleController</text>
<polyline fill="none" stroke="black" points="274,-350.5 426,-350.5 "/>
<polyline fill="none" stroke="black" points="274,-326.5 426,-326.5 "/>
<text text-anchor="start" x="282" y="-309.9" font-family="Times Roman,serif" font-size="14.00">collection_path</text>
<text text-anchor="start" x="282" y="-291.9" font-family="Times Roman,serif" font-size="14.00">collection_url</text>
<text text-anchor="start" x="282" y="-273.9" font-family="Times Roman,serif" font-size="14.00">edit_resource_path</text>
<text text-anchor="start" x="282" y="-255.9" font-family="Times Roman,serif" font-size="14.00">edit_resource_url</text>
<text text-anchor="start" x="282" y="-237.9" font-family="Times Roman,serif" font-size="14.00">new_resource_path</text>
<text text-anchor="start" x="282" y="-219.9" font-family="Times Roman,serif" font-size="14.00">new_resource_url</text>
<text text-anchor="start" x="282" y="-201.9" font-family="Times Roman,serif" font-size="14.00">resource_path</text>
<text text-anchor="start" x="282" y="-183.9" font-family="Times Roman,serif" font-size="14.00">resource_url</text>
<polyline fill="none" stroke="black" points="274,-174.5 426,-174.5 "/>
<text text-anchor="start" x="282" y="-157.9" font-family="Times Roman,serif" font-size="14.00">_layout</text>
</g>
<!-- EmployeesController -->
<g id="node4" class="node"><title>EmployeesController</title>
<polyline fill="none" stroke="black" points="307,-421.5 442,-421.5 "/>
<path fill="none" stroke="black" d="M442,-421.5C448,-421.5 454,-427.5 454,-433.5"/>
<polyline fill="none" stroke="black" points="454,-433.5 454,-637.5 "/>
<path fill="none" stroke="black" d="M454,-637.5C454,-643.5 448,-649.5 442,-649.5"/>
<polyline fill="none" stroke="black" points="442,-649.5 307,-649.5 "/>
<path fill="none" stroke="black" d="M307,-649.5C301,-649.5 295,-643.5 295,-637.5"/>
<polyline fill="none" stroke="black" points="295,-637.5 295,-433.5 "/>
<path fill="none" stroke="black" d="M295,-433.5C295,-427.5 301,-421.5 307,-421.5"/>
<text text-anchor="middle" x="374.5" y="-632.9" font-family="Times Roman,serif" font-size="14.00">EmployeesController</text>
<polyline fill="none" stroke="black" points="295,-623.5 454,-623.5 "/>
<polyline fill="none" stroke="black" points="295,-599.5 454,-599.5 "/>
<text text-anchor="start" x="303" y="-582.9" font-family="Times Roman,serif" font-size="14.00">collection_path</text>
<text text-anchor="start" x="303" y="-564.9" font-family="Times Roman,serif" font-size="14.00">collection_url</text>
<text text-anchor="start" x="303" y="-546.9" font-family="Times Roman,serif" font-size="14.00">edit_resource_path</text>
<text text-anchor="start" x="303" y="-528.9" font-family="Times Roman,serif" font-size="14.00">edit_resource_url</text>
<text text-anchor="start" x="303" y="-510.9" font-family="Times Roman,serif" font-size="14.00">new_resource_path</text>
<text text-anchor="start" x="303" y="-492.9" font-family="Times Roman,serif" font-size="14.00">new_resource_url</text>
<text text-anchor="start" x="303" y="-474.9" font-family="Times Roman,serif" font-size="14.00">resource_path</text>
<text text-anchor="start" x="303" y="-456.9" font-family="Times Roman,serif" font-size="14.00">resource_url</text>
<polyline fill="none" stroke="black" points="295,-447.5 454,-447.5 "/>
<text text-anchor="start" x="303" y="-430.9" font-family="Times Roman,serif" font-size="14.00">_layout</text>
</g>
<!-- OrganizationsController -->
<g id="node5" class="node"><title>OrganizationsController</title>
<polyline fill="none" stroke="black" points="55,-148.5 213,-148.5 "/>
<path fill="none" stroke="black" d="M213,-148.5C219,-148.5 225,-154.5 225,-160.5"/>
<polyline fill="none" stroke="black" points="225,-160.5 225,-364.5 "/>
<path fill="none" stroke="black" d="M225,-364.5C225,-370.5 219,-376.5 213,-376.5"/>
<polyline fill="none" stroke="black" points="213,-376.5 55,-376.5 "/>
<path fill="none" stroke="black" d="M55,-376.5C49,-376.5 43,-370.5 43,-364.5"/>
<polyline fill="none" stroke="black" points="43,-364.5 43,-160.5 "/>
<path fill="none" stroke="black" d="M43,-160.5C43,-154.5 49,-148.5 55,-148.5"/>
<text text-anchor="middle" x="134" y="-359.9" font-family="Times Roman,serif" font-size="14.00">OrganizationsController</text>
<polyline fill="none" stroke="black" points="43,-350.5 225,-350.5 "/>
<polyline fill="none" stroke="black" points="43,-326.5 225,-326.5 "/>
<text text-anchor="start" x="51" y="-309.9" font-family="Times Roman,serif" font-size="14.00">collection_path</text>
<text text-anchor="start" x="51" y="-291.9" font-family="Times Roman,serif" font-size="14.00">collection_url</text>
<text text-anchor="start" x="51" y="-273.9" font-family="Times Roman,serif" font-size="14.00">edit_resource_path</text>
<text text-anchor="start" x="51" y="-255.9" font-family="Times Roman,serif" font-size="14.00">edit_resource_url</text>
<text text-anchor="start" x="51" y="-237.9" font-family="Times Roman,serif" font-size="14.00">new_resource_path</text>
<text text-anchor="start" x="51" y="-219.9" font-family="Times Roman,serif" font-size="14.00">new_resource_url</text>
<text text-anchor="start" x="51" y="-201.9" font-family="Times Roman,serif" font-size="14.00">resource_path</text>
<text text-anchor="start" x="51" y="-183.9" font-family="Times Roman,serif" font-size="14.00">resource_url</text>
<polyline fill="none" stroke="black" points="43,-174.5 225,-174.5 "/>
<text text-anchor="start" x="51" y="-157.9" font-family="Times Roman,serif" font-size="14.00">_layout</text>
</g>
</g>
</svg>
