<?xml version="1.0" encoding="UTF-8" standalone="no"?>
<!DOCTYPE svg PUBLIC "-//W3C//DTD SVG 1.1//EN"
 "http://www.w3.org/Graphics/SVG/1.1/DTD/svg11.dtd">
<!-- Generated by graphviz version 2.26.3 (20100126.1600)
 -->
<!-- Title: controllers_diagram Pages: 1 -->
<svg width="831pt" height="855pt"
 viewBox="0.00 0.00 831.00 855.00" xmlns="http://www.w3.org/2000/svg" xmlns:xlink="http://www.w3.org/1999/xlink">
<g id="graph1" class="graph" transform="scale(1 1) rotate(0) translate(4 851)">
<title>controllers_diagram</title>
<polygon fill="white" stroke="white" points="-4,5 -4,-851 828,-851 828,5 -4,5"/>
<!-- _diagram_info -->
<g id="node1" class="node"><title>_diagram_info</title>
<text text-anchor="start" x="317" y="-166.3" font-family="Times Roman,serif" font-size="13.00">Controllers diagram</text>
<text text-anchor="start" x="317" y="-149.3" font-family="Times Roman,serif" font-size="13.00">Date: Jul 20 2013 &#45; 00:51</text>
<text text-anchor="start" x="317" y="-132.3" font-family="Times Roman,serif" font-size="13.00">Migration version: 20130708145219</text>
<text text-anchor="start" x="317" y="-115.3" font-family="Times Roman,serif" font-size="13.00">Generated by RailRoady 1.1.0</text>
<text text-anchor="start" x="317" y="-98.3" font-family="Times Roman,serif" font-size="13.00">http://railroady.prestonlee.com</text>
</g>
<!-- ActionsController -->
<g id="node2" class="node"><title>ActionsController</title>
<polyline fill="none" stroke="black" points="57,-617.5 185,-617.5 "/>
<path fill="none" stroke="black" d="M185,-617.5C191,-617.5 197,-623.5 197,-629.5"/>
<polyline fill="none" stroke="black" points="197,-629.5 197,-833.5 "/>
<path fill="none" stroke="black" d="M197,-833.5C197,-839.5 191,-845.5 185,-845.5"/>
<polyline fill="none" stroke="black" points="185,-845.5 57,-845.5 "/>
<path fill="none" stroke="black" d="M57,-845.5C51,-845.5 45,-839.5 45,-833.5"/>
<polyline fill="none" stroke="black" points="45,-833.5 45,-629.5 "/>
<path fill="none" stroke="black" d="M45,-629.5C45,-623.5 51,-617.5 57,-617.5"/>
<text text-anchor="middle" x="121" y="-828.9" font-family="Times Roman,serif" font-size="14.00">ActionsController</text>
<polyline fill="none" stroke="black" points="45,-819.5 197,-819.5 "/>
<polyline fill="none" stroke="black" points="45,-795.5 197,-795.5 "/>
<text text-anchor="start" x="53" y="-778.9" font-family="Times Roman,serif" font-size="14.00">collection_path</text>
<text text-anchor="start" x="53" y="-760.9" font-family="Times Roman,serif" font-size="14.00">collection_url</text>
<text text-anchor="start" x="53" y="-742.9" font-family="Times Roman,serif" font-size="14.00">edit_resource_path</text>
<text text-anchor="start" x="53" y="-724.9" font-family="Times Roman,serif" font-size="14.00">edit_resource_url</text>
<text text-anchor="start" x="53" y="-706.9" font-family="Times Roman,serif" font-size="14.00">new_resource_path</text>
<text text-anchor="start" x="53" y="-688.9" font-family="Times Roman,serif" font-size="14.00">new_resource_url</text>
<text text-anchor="start" x="53" y="-670.9" font-family="Times Roman,serif" font-size="14.00">resource_path</text>
<text text-anchor="start" x="53" y="-652.9" font-family="Times Roman,serif" font-size="14.00">resource_url</text>
<polyline fill="none" stroke="black" points="45,-643.5 197,-643.5 "/>
<text text-anchor="start" x="53" y="-626.9" font-family="Times Roman,serif" font-size="14.00">_layout</text>
</g>
<!-- ApplicationController -->
<g id="node3" class="node"><title>ApplicationController</title>
<polyline fill="none" stroke="black" points="673,-265.5 810,-265.5 "/>
<path fill="none" stroke="black" d="M810,-265.5C816,-265.5 822,-271.5 822,-277.5"/>
<polyline fill="none" stroke="black" points="822,-277.5 822,-353.5 "/>
<path fill="none" stroke="black" d="M822,-353.5C822,-359.5 816,-365.5 810,-365.5"/>
<polyline fill="none" stroke="black" points="810,-365.5 673,-365.5 "/>
<path fill="none" stroke="black" d="M673,-365.5C667,-365.5 661,-359.5 661,-353.5"/>
<polyline fill="none" stroke="black" points="661,-353.5 661,-277.5 "/>
<path fill="none" stroke="black" d="M661,-277.5C661,-271.5 667,-265.5 673,-265.5"/>
<text text-anchor="middle" x="741.5" y="-348.9" font-family="Times Roman,serif" font-size="14.00">ApplicationController</text>
<polyline fill="none" stroke="black" points="661,-339.5 822,-339.5 "/>
<polyline fill="none" stroke="black" points="661,-315.5 822,-315.5 "/>
<polyline fill="none" stroke="black" points="661,-291.5 822,-291.5 "/>
<text text-anchor="start" x="669" y="-274.9" font-family="Times Roman,serif" font-size="14.00">_layout</text>
</g>
<!-- UserRolesController -->
<g id="node4" class="node"><title>UserRolesController</title>
<polyline fill="none" stroke="black" points="13,-353.5 142,-353.5 "/>
<path fill="none" stroke="black" d="M142,-353.5C148,-353.5 154,-359.5 154,-365.5"/>
<polyline fill="none" stroke="black" points="154,-365.5 154,-569.5 "/>
<path fill="none" stroke="black" d="M154,-569.5C154,-575.5 148,-581.5 142,-581.5"/>
<polyline fill="none" stroke="black" points="142,-581.5 13,-581.5 "/>
<path fill="none" stroke="black" d="M13,-581.5C7,-581.5 1,-575.5 1,-569.5"/>
<polyline fill="none" stroke="black" points="1,-569.5 1,-365.5 "/>
<path fill="none" stroke="black" d="M1,-365.5C1,-359.5 7,-353.5 13,-353.5"/>
<text text-anchor="middle" x="77.5" y="-564.9" font-family="Times Roman,serif" font-size="14.00">UserRolesController</text>
<polyline fill="none" stroke="black" points="1,-555.5 154,-555.5 "/>
<polyline fill="none" stroke="black" points="1,-531.5 154,-531.5 "/>
<text text-anchor="start" x="9" y="-514.9" font-family="Times Roman,serif" font-size="14.00">collection_path</text>
<text text-anchor="start" x="9" y="-496.9" font-family="Times Roman,serif" font-size="14.00">collection_url</text>
<text text-anchor="start" x="9" y="-478.9" font-family="Times Roman,serif" font-size="14.00">edit_resource_path</text>
<text text-anchor="start" x="9" y="-460.9" font-family="Times Roman,serif" font-size="14.00">edit_resource_url</text>
<text text-anchor="start" x="9" y="-442.9" font-family="Times Roman,serif" font-size="14.00">new_resource_path</text>
<text text-anchor="start" x="9" y="-424.9" font-family="Times Roman,serif" font-size="14.00">new_resource_url</text>
<text text-anchor="start" x="9" y="-406.9" font-family="Times Roman,serif" font-size="14.00">resource_path</text>
<text text-anchor="start" x="9" y="-388.9" font-family="Times Roman,serif" font-size="14.00">resource_url</text>
<polyline fill="none" stroke="black" points="1,-379.5 154,-379.5 "/>
<text text-anchor="start" x="9" y="-362.9" font-family="Times Roman,serif" font-size="14.00">_layout</text>
</g>
<!-- PeopleController -->
<g id="node5" class="node"><title>PeopleController</title>
<polyline fill="none" stroke="black" points="13,-89.5 141,-89.5 "/>
<path fill="none" stroke="black" d="M141,-89.5C147,-89.5 153,-95.5 153,-101.5"/>
<polyline fill="none" stroke="black" points="153,-101.5 153,-305.5 "/>
<path fill="none" stroke="black" d="M153,-305.5C153,-311.5 147,-317.5 141,-317.5"/>
<polyline fill="none" stroke="black" points="141,-317.5 13,-317.5 "/>
<path fill="none" stroke="black" d="M13,-317.5C7,-317.5 1,-311.5 1,-305.5"/>
<polyline fill="none" stroke="black" points="1,-305.5 1,-101.5 "/>
<path fill="none" stroke="black" d="M1,-101.5C1,-95.5 7,-89.5 13,-89.5"/>
<text text-anchor="middle" x="77" y="-300.9" font-family="Times Roman,serif" font-size="14.00">PeopleController</text>
<polyline fill="none" stroke="black" points="1,-291.5 153,-291.5 "/>
<polyline fill="none" stroke="black" points="1,-267.5 153,-267.5 "/>
<text text-anchor="start" x="9" y="-250.9" font-family="Times Roman,serif" font-size="14.00">collection_path</text>
<text text-anchor="start" x="9" y="-232.9" font-family="Times Roman,serif" font-size="14.00">collection_url</text>
<text text-anchor="start" x="9" y="-214.9" font-family="Times Roman,serif" font-size="14.00">edit_resource_path</text>
<text text-anchor="start" x="9" y="-196.9" font-family="Times Roman,serif" font-size="14.00">edit_resource_url</text>
<text text-anchor="start" x="9" y="-178.9" font-family="Times Roman,serif" font-size="14.00">new_resource_path</text>
<text text-anchor="start" x="9" y="-160.9" font-family="Times Roman,serif" font-size="14.00">new_resource_url</text>
<text text-anchor="start" x="9" y="-142.9" font-family="Times Roman,serif" font-size="14.00">resource_path</text>
<text text-anchor="start" x="9" y="-124.9" font-family="Times Roman,serif" font-size="14.00">resource_url</text>
<polyline fill="none" stroke="black" points="1,-115.5 153,-115.5 "/>
<text text-anchor="start" x="9" y="-98.9" font-family="Times Roman,serif" font-size="14.00">_layout</text>
</g>
<!-- RolesController -->
<g id="node6" class="node"><title>RolesController</title>
<polyline fill="none" stroke="black" points="651,-485.5 779,-485.5 "/>
<path fill="none" stroke="black" d="M779,-485.5C785,-485.5 791,-491.5 791,-497.5"/>
<polyline fill="none" stroke="black" points="791,-497.5 791,-701.5 "/>
<path fill="none" stroke="black" d="M791,-701.5C791,-707.5 785,-713.5 779,-713.5"/>
<polyline fill="none" stroke="black" points="779,-713.5 651,-713.5 "/>
<path fill="none" stroke="black" d="M651,-713.5C645,-713.5 639,-707.5 639,-701.5"/>
<polyline fill="none" stroke="black" points="639,-701.5 639,-497.5 "/>
<path fill="none" stroke="black" d="M639,-497.5C639,-491.5 645,-485.5 651,-485.5"/>
<text text-anchor="middle" x="715" y="-696.9" font-family="Times Roman,serif" font-size="14.00">RolesController</text>
<polyline fill="none" stroke="black" points="639,-687.5 791,-687.5 "/>
<polyline fill="none" stroke="black" points="639,-663.5 791,-663.5 "/>
<text text-anchor="start" x="647" y="-646.9" font-family="Times Roman,serif" font-size="14.00">collection_path</text>
<text text-anchor="start" x="647" y="-628.9" font-family="Times Roman,serif" font-size="14.00">collection_url</text>
<text text-anchor="start" x="647" y="-610.9" font-family="Times Roman,serif" font-size="14.00">edit_resource_path</text>
<text text-anchor="start" x="647" y="-592.9" font-family="Times Roman,serif" font-size="14.00">edit_resource_url</text>
<text text-anchor="start" x="647" y="-574.9" font-family="Times Roman,serif" font-size="14.00">new_resource_path</text>
<text text-anchor="start" x="647" y="-556.9" font-family="Times Roman,serif" font-size="14.00">new_resource_url</text>
<text text-anchor="start" x="647" y="-538.9" font-family="Times Roman,serif" font-size="14.00">resource_path</text>
<text text-anchor="start" x="647" y="-520.9" font-family="Times Roman,serif" font-size="14.00">resource_url</text>
<polyline fill="none" stroke="black" points="639,-511.5 791,-511.5 "/>
<text text-anchor="start" x="647" y="-494.9" font-family="Times Roman,serif" font-size="14.00">_layout</text>
</g>
<!-- EmployeesController -->
<g id="node7" class="node"><title>EmployeesController</title>
<polyline fill="none" stroke="black" points="453,-485.5 588,-485.5 "/>
<path fill="none" stroke="black" d="M588,-485.5C594,-485.5 600,-491.5 600,-497.5"/>
<polyline fill="none" stroke="black" points="600,-497.5 600,-701.5 "/>
<path fill="none" stroke="black" d="M600,-701.5C600,-707.5 594,-713.5 588,-713.5"/>
<polyline fill="none" stroke="black" points="588,-713.5 453,-713.5 "/>
<path fill="none" stroke="black" d="M453,-713.5C447,-713.5 441,-707.5 441,-701.5"/>
<polyline fill="none" stroke="black" points="441,-701.5 441,-497.5 "/>
<path fill="none" stroke="black" d="M441,-497.5C441,-491.5 447,-485.5 453,-485.5"/>
<text text-anchor="middle" x="520.5" y="-696.9" font-family="Times Roman,serif" font-size="14.00">EmployeesController</text>
<polyline fill="none" stroke="black" points="441,-687.5 600,-687.5 "/>
<polyline fill="none" stroke="black" points="441,-663.5 600,-663.5 "/>
<text text-anchor="start" x="449" y="-646.9" font-family="Times Roman,serif" font-size="14.00">collection_path</text>
<text text-anchor="start" x="449" y="-628.9" font-family="Times Roman,serif" font-size="14.00">collection_url</text>
<text text-anchor="start" x="449" y="-610.9" font-family="Times Roman,serif" font-size="14.00">edit_resource_path</text>
<text text-anchor="start" x="449" y="-592.9" font-family="Times Roman,serif" font-size="14.00">edit_resource_url</text>
<text text-anchor="start" x="449" y="-574.9" font-family="Times Roman,serif" font-size="14.00">new_resource_path</text>
<text text-anchor="start" x="449" y="-556.9" font-family="Times Roman,serif" font-size="14.00">new_resource_url</text>
<text text-anchor="start" x="449" y="-538.9" font-family="Times Roman,serif" font-size="14.00">resource_path</text>
<text text-anchor="start" x="449" y="-520.9" font-family="Times Roman,serif" font-size="14.00">resource_url</text>
<polyline fill="none" stroke="black" points="441,-511.5 600,-511.5 "/>
<text text-anchor="start" x="449" y="-494.9" font-family="Times Roman,serif" font-size="14.00">_layout</text>
</g>
<!-- ResourcesController -->
<g id="node8" class="node"><title>ResourcesController</title>
<polyline fill="none" stroke="black" points="673,-1.5 804,-1.5 "/>
<path fill="none" stroke="black" d="M804,-1.5C810,-1.5 816,-7.5 816,-13.5"/>
<polyline fill="none" stroke="black" points="816,-13.5 816,-217.5 "/>
<path fill="none" stroke="black" d="M816,-217.5C816,-223.5 810,-229.5 804,-229.5"/>
<polyline fill="none" stroke="black" points="804,-229.5 673,-229.5 "/>
<path fill="none" stroke="black" d="M673,-229.5C667,-229.5 661,-223.5 661,-217.5"/>
<polyline fill="none" stroke="black" points="661,-217.5 661,-13.5 "/>
<path fill="none" stroke="black" d="M661,-13.5C661,-7.5 667,-1.5 673,-1.5"/>
<text text-anchor="middle" x="738.5" y="-212.9" font-family="Times Roman,serif" font-size="14.00">ResourcesController</text>
<polyline fill="none" stroke="black" points="661,-203.5 816,-203.5 "/>
<polyline fill="none" stroke="black" points="661,-179.5 816,-179.5 "/>
<text text-anchor="start" x="669" y="-162.9" font-family="Times Roman,serif" font-size="14.00">collection_path</text>
<text text-anchor="start" x="669" y="-144.9" font-family="Times Roman,serif" font-size="14.00">collection_url</text>
<text text-anchor="start" x="669" y="-126.9" font-family="Times Roman,serif" font-size="14.00">edit_resource_path</text>
<text text-anchor="start" x="669" y="-108.9" font-family="Times Roman,serif" font-size="14.00">edit_resource_url</text>
<text text-anchor="start" x="669" y="-90.9" font-family="Times Roman,serif" font-size="14.00">new_resource_path</text>
<text text-anchor="start" x="669" y="-72.9" font-family="Times Roman,serif" font-size="14.00">new_resource_url</text>
<text text-anchor="start" x="669" y="-54.9" font-family="Times Roman,serif" font-size="14.00">resource_path</text>
<text text-anchor="start" x="669" y="-36.9" font-family="Times Roman,serif" font-size="14.00">resource_url</text>
<polyline fill="none" stroke="black" points="661,-27.5 816,-27.5 "/>
<text text-anchor="start" x="669" y="-10.9" font-family="Times Roman,serif" font-size="14.00">_layout</text>
</g>
<!-- PermissionsController -->
<g id="node9" class="node"><title>PermissionsController</title>
<polyline fill="none" stroke="black" points="255,-485.5 397,-485.5 "/>
<path fill="none" stroke="black" d="M397,-485.5C403,-485.5 409,-491.5 409,-497.5"/>
<polyline fill="none" stroke="black" points="409,-497.5 409,-701.5 "/>
<path fill="none" stroke="black" d="M409,-701.5C409,-707.5 403,-713.5 397,-713.5"/>
<polyline fill="none" stroke="black" points="397,-713.5 255,-713.5 "/>
<path fill="none" stroke="black" d="M255,-713.5C249,-713.5 243,-707.5 243,-701.5"/>
<polyline fill="none" stroke="black" points="243,-701.5 243,-497.5 "/>
<path fill="none" stroke="black" d="M243,-497.5C243,-491.5 249,-485.5 255,-485.5"/>
<text text-anchor="middle" x="326" y="-696.9" font-family="Times Roman,serif" font-size="14.00">PermissionsController</text>
<polyline fill="none" stroke="black" points="243,-687.5 409,-687.5 "/>
<polyline fill="none" stroke="black" points="243,-663.5 409,-663.5 "/>
<text text-anchor="start" x="251" y="-646.9" font-family="Times Roman,serif" font-size="14.00">collection_path</text>
<text text-anchor="start" x="251" y="-628.9" font-family="Times Roman,serif" font-size="14.00">collection_url</text>
<text text-anchor="start" x="251" y="-610.9" font-family="Times Roman,serif" font-size="14.00">edit_resource_path</text>
<text text-anchor="start" x="251" y="-592.9" font-family="Times Roman,serif" font-size="14.00">edit_resource_url</text>
<text text-anchor="start" x="251" y="-574.9" font-family="Times Roman,serif" font-size="14.00">new_resource_path</text>
<text text-anchor="start" x="251" y="-556.9" font-family="Times Roman,serif" font-size="14.00">new_resource_url</text>
<text text-anchor="start" x="251" y="-538.9" font-family="Times Roman,serif" font-size="14.00">resource_path</text>
<text text-anchor="start" x="251" y="-520.9" font-family="Times Roman,serif" font-size="14.00">resource_url</text>
<polyline fill="none" stroke="black" points="243,-511.5 409,-511.5 "/>
<text text-anchor="start" x="251" y="-494.9" font-family="Times Roman,serif" font-size="14.00">_layout</text>
</g>
<!-- RolePermissionsController -->
<g id="node10" class="node"><title>RolePermissionsController</title>
<polyline fill="none" stroke="black" points="211,-221.5 382,-221.5 "/>
<path fill="none" stroke="black" d="M382,-221.5C388,-221.5 394,-227.5 394,-233.5"/>
<polyline fill="none" stroke="black" points="394,-233.5 394,-437.5 "/>
<path fill="none" stroke="black" d="M394,-437.5C394,-443.5 388,-449.5 382,-449.5"/>
<polyline fill="none" stroke="black" points="382,-449.5 211,-449.5 "/>
<path fill="none" stroke="black" d="M211,-449.5C205,-449.5 199,-443.5 199,-437.5"/>
<polyline fill="none" stroke="black" points="199,-437.5 199,-233.5 "/>
<path fill="none" stroke="black" d="M199,-233.5C199,-227.5 205,-221.5 211,-221.5"/>
<text text-anchor="middle" x="296.5" y="-432.9" font-family="Times Roman,serif" font-size="14.00">RolePermissionsController</text>
<polyline fill="none" stroke="black" points="199,-423.5 394,-423.5 "/>
<polyline fill="none" stroke="black" points="199,-399.5 394,-399.5 "/>
<text text-anchor="start" x="207" y="-382.9" font-family="Times Roman,serif" font-size="14.00">collection_path</text>
<text text-anchor="start" x="207" y="-364.9" font-family="Times Roman,serif" font-size="14.00">collection_url</text>
<text text-anchor="start" x="207" y="-346.9" font-family="Times Roman,serif" font-size="14.00">edit_resource_path</text>
<text text-anchor="start" x="207" y="-328.9" font-family="Times Roman,serif" font-size="14.00">edit_resource_url</text>
<text text-anchor="start" x="207" y="-310.9" font-family="Times Roman,serif" font-size="14.00">new_resource_path</text>
<text text-anchor="start" x="207" y="-292.9" font-family="Times Roman,serif" font-size="14.00">new_resource_url</text>
<text text-anchor="start" x="207" y="-274.9" font-family="Times Roman,serif" font-size="14.00">resource_path</text>
<text text-anchor="start" x="207" y="-256.9" font-family="Times Roman,serif" font-size="14.00">resource_url</text>
<polyline fill="none" stroke="black" points="199,-247.5 394,-247.5 "/>
<text text-anchor="start" x="207" y="-230.9" font-family="Times Roman,serif" font-size="14.00">_layout</text>
</g>
<!-- OrganizationsController -->
<g id="node11" class="node"><title>OrganizationsController</title>
<polyline fill="none" stroke="black" points="453,-221.5 611,-221.5 "/>
<path fill="none" stroke="black" d="M611,-221.5C617,-221.5 623,-227.5 623,-233.5"/>
<polyline fill="none" stroke="black" points="623,-233.5 623,-437.5 "/>
<path fill="none" stroke="black" d="M623,-437.5C623,-443.5 617,-449.5 611,-449.5"/>
<polyline fill="none" stroke="black" points="611,-449.5 453,-449.5 "/>
<path fill="none" stroke="black" d="M453,-449.5C447,-449.5 441,-443.5 441,-437.5"/>
<polyline fill="none" stroke="black" points="441,-437.5 441,-233.5 "/>
<path fill="none" stroke="black" d="M441,-233.5C441,-227.5 447,-221.5 453,-221.5"/>
<text text-anchor="middle" x="532" y="-432.9" font-family="Times Roman,serif" font-size="14.00">OrganizationsController</text>
<polyline fill="none" stroke="black" points="441,-423.5 623,-423.5 "/>
<polyline fill="none" stroke="black" points="441,-399.5 623,-399.5 "/>
<text text-anchor="start" x="449" y="-382.9" font-family="Times Roman,serif" font-size="14.00">collection_path</text>
<text text-anchor="start" x="449" y="-364.9" font-family="Times Roman,serif" font-size="14.00">collection_url</text>
<text text-anchor="start" x="449" y="-346.9" font-family="Times Roman,serif" font-size="14.00">edit_resource_path</text>
<text text-anchor="start" x="449" y="-328.9" font-family="Times Roman,serif" font-size="14.00">edit_resource_url</text>
<text text-anchor="start" x="449" y="-310.9" font-family="Times Roman,serif" font-size="14.00">new_resource_path</text>
<text text-anchor="start" x="449" y="-292.9" font-family="Times Roman,serif" font-size="14.00">new_resource_url</text>
<text text-anchor="start" x="449" y="-274.9" font-family="Times Roman,serif" font-size="14.00">resource_path</text>
<text text-anchor="start" x="449" y="-256.9" font-family="Times Roman,serif" font-size="14.00">resource_url</text>
<polyline fill="none" stroke="black" points="441,-247.5 623,-247.5 "/>
<text text-anchor="start" x="449" y="-230.9" font-family="Times Roman,serif" font-size="14.00">_layout</text>
</g>
</g>
</svg>
