<?xml version="1.0" encoding="UTF-8" standalone="no"?>
<!DOCTYPE svg PUBLIC "-//W3C//DTD SVG 1.1//EN"
 "http://www.w3.org/Graphics/SVG/1.1/DTD/svg11.dtd">
<!-- Generated by graphviz version 2.26.3 (20100126.1600)
 -->
<!-- Title: models_diagram Pages: 1 -->
<svg width="894pt" height="458pt"
 viewBox="0.00 0.00 894.00 458.00" xmlns="http://www.w3.org/2000/svg" xmlns:xlink="http://www.w3.org/1999/xlink">
<g id="graph1" class="graph" transform="scale(1 1) rotate(0) translate(4 454)">
<title>models_diagram</title>
<polygon fill="white" stroke="white" points="-4,5 -4,-454 891,-454 891,5 -4,5"/>
<!-- _diagram_info -->
<g id="node1" class="node"><title>_diagram_info</title>
<text text-anchor="start" x="8" y="-345.8" font-family="Times Roman,serif" font-size="13.00">Models diagram</text>
<text text-anchor="start" x="8" y="-328.8" font-family="Times Roman,serif" font-size="13.00">Date: Jun 26 2013 &#45; 22:37</text>
<text text-anchor="start" x="8" y="-311.8" font-family="Times Roman,serif" font-size="13.00">Migration version: 20130614035611</text>
<text text-anchor="start" x="8" y="-294.8" font-family="Times Roman,serif" font-size="13.00">Generated by RailRoady 1.1.0</text>
<text text-anchor="start" x="8" y="-277.8" font-family="Times Roman,serif" font-size="13.00">http://railroady.prestonlee.com</text>
</g>
<!-- Employee -->
<g id="node2" class="node"><title>Employee</title>
<polyline fill="none" stroke="black" points="261,-1 439,-1 "/>
<path fill="none" stroke="black" d="M439,-1C445,-1 451,-7 451,-13"/>
<polyline fill="none" stroke="black" points="451,-13 451,-131 "/>
<path fill="none" stroke="black" d="M451,-131C451,-137 445,-143 439,-143"/>
<polyline fill="none" stroke="black" points="439,-143 261,-143 "/>
<path fill="none" stroke="black" d="M261,-143C255,-143 249,-137 249,-131"/>
<polyline fill="none" stroke="black" points="249,-131 249,-13 "/>
<path fill="none" stroke="black" d="M249,-13C249,-7 255,-1 261,-1"/>
<text text-anchor="middle" x="350" y="-126.4" font-family="Times Roman,serif" font-size="14.00">Employee</text>
<polyline fill="none" stroke="black" points="249,-117 451,-117 "/>
<text text-anchor="start" x="257" y="-100.4" font-family="Times Roman,serif" font-size="14.00">id :integer</text>
<text text-anchor="start" x="257" y="-82.4" font-family="Times Roman,serif" font-size="14.00">employer_reference :string</text>
<text text-anchor="start" x="257" y="-64.4" font-family="Times Roman,serif" font-size="14.00">organization_id :integer</text>
<text text-anchor="start" x="257" y="-46.4" font-family="Times Roman,serif" font-size="14.00">person_id :integer</text>
<text text-anchor="start" x="257" y="-28.4" font-family="Times Roman,serif" font-size="14.00">created_at :datetime</text>
<text text-anchor="start" x="257" y="-10.4" font-family="Times Roman,serif" font-size="14.00">updated_at :datetime</text>
</g>
<!-- Organization -->
<g id="node3" class="node"><title>Organization</title>
<polyline fill="none" stroke="black" points="279.5,-253 420.5,-253 "/>
<path fill="none" stroke="black" d="M420.5,-253C426.5,-253 432.5,-259 432.5,-265"/>
<polyline fill="none" stroke="black" points="432.5,-265 432.5,-365 "/>
<path fill="none" stroke="black" d="M432.5,-365C432.5,-371 426.5,-377 420.5,-377"/>
<polyline fill="none" stroke="black" points="420.5,-377 279.5,-377 "/>
<path fill="none" stroke="black" d="M279.5,-377C273.5,-377 267.5,-371 267.5,-365"/>
<polyline fill="none" stroke="black" points="267.5,-365 267.5,-265 "/>
<path fill="none" stroke="black" d="M267.5,-265C267.5,-259 273.5,-253 279.5,-253"/>
<text text-anchor="middle" x="350" y="-360.4" font-family="Times Roman,serif" font-size="14.00">Organization</text>
<polyline fill="none" stroke="black" points="267.5,-351 432.5,-351 "/>
<text text-anchor="start" x="275.5" y="-334.4" font-family="Times Roman,serif" font-size="14.00">id :integer</text>
<text text-anchor="start" x="275.5" y="-316.4" font-family="Times Roman,serif" font-size="14.00">name :string</text>
<text text-anchor="start" x="275.5" y="-298.4" font-family="Times Roman,serif" font-size="14.00">description :text</text>
<text text-anchor="start" x="275.5" y="-280.4" font-family="Times Roman,serif" font-size="14.00">created_at :datetime</text>
<text text-anchor="start" x="275.5" y="-262.4" font-family="Times Roman,serif" font-size="14.00">updated_at :datetime</text>
</g>
<!-- Organization&#45;&gt;Employee -->
<g id="edge2" class="edge"><title>Organization&#45;&gt;Employee</title>
<path fill="none" stroke="#2305c7" d="M350,-244.349C350,-215.878 350,-182.862 350,-153.392"/>
<ellipse fill="none" stroke="#2305c7" cx="350" cy="-248.737" rx="4" ry="4"/>
<polygon fill="#2305c7" stroke="#2305c7" points="350,-153.129 354.5,-143.129 350,-148.129 350,-143.129 350,-143.129 350,-143.129 350,-148.129 345.5,-143.129 350,-153.129 350,-153.129"/>
</g>
<!-- Person -->
<g id="node4" class="node"><title>Person</title>
<polyline fill="none" stroke="black" points="461.5,-244 602.5,-244 "/>
<path fill="none" stroke="black" d="M602.5,-244C608.5,-244 614.5,-250 614.5,-256"/>
<polyline fill="none" stroke="black" points="614.5,-256 614.5,-374 "/>
<path fill="none" stroke="black" d="M614.5,-374C614.5,-380 608.5,-386 602.5,-386"/>
<polyline fill="none" stroke="black" points="602.5,-386 461.5,-386 "/>
<path fill="none" stroke="black" d="M461.5,-386C455.5,-386 449.5,-380 449.5,-374"/>
<polyline fill="none" stroke="black" points="449.5,-374 449.5,-256 "/>
<path fill="none" stroke="black" d="M449.5,-256C449.5,-250 455.5,-244 461.5,-244"/>
<text text-anchor="middle" x="532" y="-369.4" font-family="Times Roman,serif" font-size="14.00">Person</text>
<polyline fill="none" stroke="black" points="449.5,-360 614.5,-360 "/>
<text text-anchor="start" x="457.5" y="-343.4" font-family="Times Roman,serif" font-size="14.00">id :integer</text>
<text text-anchor="start" x="457.5" y="-325.4" font-family="Times Roman,serif" font-size="14.00">first_name :string</text>
<text text-anchor="start" x="457.5" y="-307.4" font-family="Times Roman,serif" font-size="14.00">last_name :string</text>
<text text-anchor="start" x="457.5" y="-289.4" font-family="Times Roman,serif" font-size="14.00">description :text</text>
<text text-anchor="start" x="457.5" y="-271.4" font-family="Times Roman,serif" font-size="14.00">created_at :datetime</text>
<text text-anchor="start" x="457.5" y="-253.4" font-family="Times Roman,serif" font-size="14.00">updated_at :datetime</text>
</g>
<!-- AdminUser -->
<g id="node5" class="node"><title>AdminUser</title>
<polyline fill="none" stroke="black" points="644,-181 874,-181 "/>
<path fill="none" stroke="black" d="M874,-181C880,-181 886,-187 886,-193"/>
<polyline fill="none" stroke="black" points="886,-193 886,-437 "/>
<path fill="none" stroke="black" d="M886,-437C886,-443 880,-449 874,-449"/>
<polyline fill="none" stroke="black" points="874,-449 644,-449 "/>
<path fill="none" stroke="black" d="M644,-449C638,-449 632,-443 632,-437"/>
<polyline fill="none" stroke="black" points="632,-437 632,-193 "/>
<path fill="none" stroke="black" d="M632,-193C632,-187 638,-181 644,-181"/>
<text text-anchor="middle" x="759" y="-432.4" font-family="Times Roman,serif" font-size="14.00">AdminUser</text>
<polyline fill="none" stroke="black" points="632,-423 886,-423 "/>
<text text-anchor="start" x="640" y="-406.4" font-family="Times Roman,serif" font-size="14.00">id :integer</text>
<text text-anchor="start" x="640" y="-388.4" font-family="Times Roman,serif" font-size="14.00">email :string</text>
<text text-anchor="start" x="640" y="-370.4" font-family="Times Roman,serif" font-size="14.00">encrypted_password :string</text>
<text text-anchor="start" x="640" y="-352.4" font-family="Times Roman,serif" font-size="14.00">reset_password_token :string</text>
<text text-anchor="start" x="640" y="-334.4" font-family="Times Roman,serif" font-size="14.00">reset_password_sent_at :datetime</text>
<text text-anchor="start" x="640" y="-316.4" font-family="Times Roman,serif" font-size="14.00">remember_created_at :datetime</text>
<text text-anchor="start" x="640" y="-298.4" font-family="Times Roman,serif" font-size="14.00">sign_in_count :integer</text>
<text text-anchor="start" x="640" y="-280.4" font-family="Times Roman,serif" font-size="14.00">current_sign_in_at :datetime</text>
<text text-anchor="start" x="640" y="-262.4" font-family="Times Roman,serif" font-size="14.00">last_sign_in_at :datetime</text>
<text text-anchor="start" x="640" y="-244.4" font-family="Times Roman,serif" font-size="14.00">current_sign_in_ip :string</text>
<text text-anchor="start" x="640" y="-226.4" font-family="Times Roman,serif" font-size="14.00">last_sign_in_ip :string</text>
<text text-anchor="start" x="640" y="-208.4" font-family="Times Roman,serif" font-size="14.00">created_at :datetime</text>
<text text-anchor="start" x="640" y="-190.4" font-family="Times Roman,serif" font-size="14.00">updated_at :datetime</text>
</g>
</g>
</svg>
