<?xml version="1.0" encoding="UTF-8" standalone="no"?>
<!DOCTYPE svg PUBLIC "-//W3C//DTD SVG 1.1//EN"
 "http://www.w3.org/Graphics/SVG/1.1/DTD/svg11.dtd">
<!-- Generated by graphviz version 2.26.3 (20100126.1600)
 -->
<!-- Title: models_diagram Pages: 1 -->
<svg width="1152pt" height="398pt"
 viewBox="0.00 0.00 1152.00 398.00" xmlns="http://www.w3.org/2000/svg" xmlns:xlink="http://www.w3.org/1999/xlink">
<g id="graph1" class="graph" transform="scale(1 1) rotate(0) translate(4 394)">
<title>models_diagram</title>
<polygon fill="white" stroke="white" points="-4,5 -4,-394 1149,-394 1149,5 -4,5"/>
<!-- _diagram_info -->
<g id="node1" class="node"><title>_diagram_info</title>
<text text-anchor="start" x="8" y="-373.8" font-family="Times Roman,serif" font-size="13.00">Models diagram</text>
<text text-anchor="start" x="8" y="-356.8" font-family="Times Roman,serif" font-size="13.00">Date: Jul 20 2013 &#45; 00:50</text>
<text text-anchor="start" x="8" y="-339.8" font-family="Times Roman,serif" font-size="13.00">Migration version: 20130708145219</text>
<text text-anchor="start" x="8" y="-322.8" font-family="Times Roman,serif" font-size="13.00">Generated by RailRoady 1.1.0</text>
<text text-anchor="start" x="8" y="-305.8" font-family="Times Roman,serif" font-size="13.00">http://railroady.prestonlee.com</text>
</g>
<!-- Employee -->
<g id="node2" class="node"><title>Employee</title>
<ellipse fill="none" stroke="black" cx="343" cy="-241" rx="58.1882" ry="18.3848"/>
<text text-anchor="middle" x="343" y="-237.4" font-family="Times Roman,serif" font-size="14.00">Employee</text>
</g>
<!-- Resource -->
<g id="node3" class="node"><title>Resource</title>
<ellipse fill="none" stroke="black" cx="492" cy="-343" rx="55.8614" ry="18.3848"/>
<text text-anchor="middle" x="492" y="-339.4" font-family="Times Roman,serif" font-size="14.00">Resource</text>
</g>
<!-- Permission -->
<g id="node8" class="node"><title>Permission</title>
<ellipse fill="none" stroke="black" cx="550" cy="-241" rx="63.1385" ry="18.3848"/>
<text text-anchor="middle" x="550" y="-237.4" font-family="Times Roman,serif" font-size="14.00">Permission</text>
</g>
<!-- Resource&#45;&gt;Permission -->
<g id="edge2" class="edge"><title>Resource&#45;&gt;Permission</title>
<path fill="none" stroke="#28d1a9" d="M506.546,-317.419C515.044,-302.475 525.765,-283.62 534.432,-268.378"/>
<ellipse fill="none" stroke="#28d1a9" cx="504.346" cy="-321.287" rx="4.00002" ry="4.00002"/>
<polygon fill="#28d1a9" stroke="#28d1a9" points="534.582,-268.115 543.437,-261.646 537.053,-263.768 539.525,-259.422 539.525,-259.422 539.525,-259.422 537.053,-263.768 535.613,-257.197 534.582,-268.115 534.582,-268.115"/>
</g>
<!-- ScorecardAuthorization -->
<g id="node4" class="node"><title>ScorecardAuthorization</title>
<polygon fill="none" stroke="black" points="942,-259 764,-259 764,-223 942,-223 942,-259"/>
<text text-anchor="middle" x="853" y="-237.4" font-family="Times Roman,serif" font-size="14.00">ScorecardAuthorization</text>
</g>
<!-- RolePermission -->
<g id="node5" class="node"><title>RolePermission</title>
<ellipse fill="none" stroke="black" cx="497" cy="-19" rx="84.1457" ry="18.3848"/>
<text text-anchor="middle" x="497" y="-15.4" font-family="Times Roman,serif" font-size="14.00">RolePermission</text>
</g>
<!-- Action -->
<g id="node6" class="node"><title>Action</title>
<ellipse fill="none" stroke="black" cx="608" cy="-343" rx="41.9273" ry="18.3848"/>
<text text-anchor="middle" x="608" y="-339.4" font-family="Times Roman,serif" font-size="14.00">Action</text>
</g>
<!-- Action&#45;&gt;Permission -->
<g id="edge6" class="edge"><title>Action&#45;&gt;Permission</title>
<path fill="none" stroke="#9bbc74" d="M593.454,-317.419C584.956,-302.475 574.235,-283.62 565.568,-268.378"/>
<ellipse fill="none" stroke="#9bbc74" cx="595.654" cy="-321.287" rx="4.00002" ry="4.00002"/>
<polygon fill="#9bbc74" stroke="#9bbc74" points="565.418,-268.115 564.387,-257.197 562.947,-263.768 560.475,-259.422 560.475,-259.422 560.475,-259.422 562.947,-263.768 556.563,-261.646 565.418,-268.115 565.418,-268.115"/>
</g>
<!-- Organization -->
<g id="node7" class="node"><title>Organization</title>
<ellipse fill="none" stroke="black" cx="343" cy="-343" rx="75.1594" ry="18.3848"/>
<text text-anchor="middle" x="343" y="-339.4" font-family="Times Roman,serif" font-size="14.00">Organization</text>
</g>
<!-- Organization&#45;&gt;Employee -->
<g id="edge8" class="edge"><title>Organization&#45;&gt;Employee</title>
<path fill="none" stroke="#498afa" d="M343,-316.015C343,-301.835 343,-284.445 343,-269.98"/>
<ellipse fill="none" stroke="#498afa" cx="343" cy="-320.292" rx="4" ry="4"/>
<polygon fill="#498afa" stroke="#498afa" points="343,-269.59 347.5,-259.59 343,-264.59 343,-259.59 343,-259.59 343,-259.59 343,-264.59 338.5,-259.59 343,-269.59 343,-269.59"/>
</g>
<!-- Permission&#45;&gt;RolePermission -->
<g id="edge10" class="edge"><title>Permission&#45;&gt;RolePermission</title>
<path fill="none" stroke="#e0fcec" d="M543.679,-214.521C533.643,-172.484 514.146,-90.8173 503.811,-47.53"/>
<ellipse fill="none" stroke="#e0fcec" cx="544.644" cy="-218.564" rx="4.00001" ry="4.00001"/>
<polygon fill="#e0fcec" stroke="#e0fcec" points="503.774,-47.3757 505.829,-36.6041 502.613,-42.5124 501.452,-37.6491 501.452,-37.6491 501.452,-37.6491 502.613,-42.5124 497.075,-38.6941 503.774,-47.3757 503.774,-47.3757"/>
</g>
<!-- AdminUser -->
<g id="node10" class="node"><title>AdminUser</title>
<ellipse fill="none" stroke="black" cx="643" cy="-167" rx="65.0538" ry="18.3848"/>
<text text-anchor="middle" x="643" y="-163.4" font-family="Times Roman,serif" font-size="14.00">AdminUser</text>
</g>
<!-- Permission&#45;&gt;AdminUser -->
<g id="edge14" class="edge"><title>Permission&#45;&gt;AdminUser</title>
<path fill="none" stroke="#87dbbc" d="M579.987,-217.139C590.455,-208.81 602.206,-199.46 612.699,-191.11"/>
<polygon fill="#87dbbc" stroke="#87dbbc" points="579.865,-217.237 569.238,-219.942 575.952,-220.35 572.04,-223.463 572.04,-223.463 572.04,-223.463 575.952,-220.35 574.842,-226.984 579.865,-217.237 579.865,-217.237"/>
<polygon fill="#87dbbc" stroke="#87dbbc" points="612.971,-190.894 623.598,-188.189 616.884,-187.781 620.796,-184.668 620.796,-184.668 620.796,-184.668 616.884,-187.781 617.994,-181.146 612.971,-190.894 612.971,-190.894"/>
</g>
<!-- Role -->
<g id="node11" class="node"><title>Role</title>
<ellipse fill="none" stroke="black" cx="578" cy="-93" rx="32.0265" ry="18.3848"/>
<text text-anchor="middle" x="578" y="-89.4" font-family="Times Roman,serif" font-size="14.00">Role</text>
</g>
<!-- Permission&#45;&gt;Role -->
<g id="edge12" class="edge"><title>Permission&#45;&gt;Role</title>
<path fill="none" stroke="#c4b97c" d="M555.473,-212.071C560.42,-185.922 567.662,-147.644 572.59,-121.598"/>
<polygon fill="#c4b97c" stroke="#c4b97c" points="555.405,-212.43 549.125,-221.419 554.476,-217.343 553.546,-222.256 553.546,-222.256 553.546,-222.256 554.476,-217.343 557.968,-223.092 555.405,-212.43 555.405,-212.43"/>
<polygon fill="#c4b97c" stroke="#c4b97c" points="572.624,-121.418 578.904,-112.429 573.553,-116.505 574.483,-111.592 574.483,-111.592 574.483,-111.592 573.553,-116.505 570.061,-110.756 572.624,-121.418 572.624,-121.418"/>
</g>
<!-- Person -->
<g id="node9" class="node"><title>Person</title>
<ellipse fill="none" stroke="black" cx="1100" cy="-343" rx="44.0472" ry="18.3848"/>
<text text-anchor="middle" x="1100" y="-339.4" font-family="Times Roman,serif" font-size="14.00">Person</text>
</g>
<!-- AdminUser&#45;&gt;Role -->
<g id="edge18" class="edge"><title>AdminUser&#45;&gt;Role</title>
<path fill="none" stroke="#615be2" d="M620.187,-141.028C613.443,-133.35 606.087,-124.976 599.433,-117.401"/>
<polygon fill="#615be2" stroke="#615be2" points="620.333,-141.195 623.552,-151.678 623.633,-144.951 626.933,-148.708 626.933,-148.708 626.933,-148.708 623.633,-144.951 630.314,-145.738 620.333,-141.195 620.333,-141.195"/>
<polygon fill="#615be2" stroke="#615be2" points="599.151,-117.08 595.933,-106.597 595.852,-113.323 592.552,-109.567 592.552,-109.567 592.552,-109.567 595.852,-113.323 589.171,-112.536 599.151,-117.08 599.151,-117.08"/>
</g>
<!-- UserRole -->
<g id="node12" class="node"><title>UserRole</title>
<ellipse fill="none" stroke="black" cx="653" cy="-19" rx="53.9477" ry="18.3848"/>
<text text-anchor="middle" x="653" y="-15.4" font-family="Times Roman,serif" font-size="14.00">UserRole</text>
</g>
<!-- AdminUser&#45;&gt;UserRole -->
<g id="edge16" class="edge"><title>AdminUser&#45;&gt;UserRole</title>
<path fill="none" stroke="#fe47e7" d="M644.824,-140.006C646.587,-113.917 649.248,-74.5269 651.052,-47.8341"/>
<ellipse fill="none" stroke="#fe47e7" cx="644.536" cy="-144.265" rx="4" ry="4"/>
<polygon fill="#fe47e7" stroke="#fe47e7" points="651.07,-47.5694 656.234,-37.8955 651.407,-42.5807 651.744,-37.5921 651.744,-37.5921 651.744,-37.5921 651.407,-42.5807 647.254,-37.2887 651.07,-47.5694 651.07,-47.5694"/>
</g>
<!-- Role&#45;&gt;RolePermission -->
<g id="edge22" class="edge"><title>Role&#45;&gt;RolePermission</title>
<path fill="none" stroke="#fa1fb2" d="M554.785,-71.7916C545.287,-63.1144 534.228,-53.0108 524.342,-43.9793"/>
<ellipse fill="none" stroke="#fa1fb2" cx="557.869" cy="-74.6085" rx="4.00002" ry="4.00002"/>
<polygon fill="#fa1fb2" stroke="#fa1fb2" points="524.101,-43.7586 519.753,-33.6914 520.409,-40.3862 516.718,-37.0137 516.718,-37.0137 516.718,-37.0137 520.409,-40.3862 513.683,-40.336 524.101,-43.7586 524.101,-43.7586"/>
</g>
<!-- Role&#45;&gt;UserRole -->
<g id="edge20" class="edge"><title>Role&#45;&gt;UserRole</title>
<path fill="none" stroke="#e81973" d="M600.216,-71.0798C608.933,-62.4792 618.979,-52.5671 627.952,-43.7138"/>
<ellipse fill="none" stroke="#e81973" cx="597.121" cy="-74.1337" rx="4.00002" ry="4.00002"/>
<polygon fill="#e81973" stroke="#e81973" points="628.066,-43.6015 638.345,-39.7813 631.625,-40.0898 635.184,-36.578 635.184,-36.578 635.184,-36.578 631.625,-40.0898 632.024,-33.3747 628.066,-43.6015 628.066,-43.6015"/>
</g>
<!-- ActiveAdmin::AuthorizationAdapter -->
<g id="node14" class="node"><title>ActiveAdmin::AuthorizationAdapter</title>
<ellipse fill="none" stroke="black" cx="853" cy="-343" rx="184.763" ry="18.3848"/>
<text text-anchor="middle" x="853" y="-339.4" font-family="Times Roman,serif" font-size="14.00">ActiveAdmin::AuthorizationAdapter</text>
</g>
<!-- ActiveAdmin::AuthorizationAdapter&#45;&gt;ScorecardAuthorization -->
<g id="edge4" class="edge"><title>ActiveAdmin::AuthorizationAdapter&#45;&gt;ScorecardAuthorization</title>
<path fill="none" stroke="black" d="M853,-324.292C853,-305.773 853,-277.603 853,-259.247"/>
</g>
</g>
</svg>
