<?xml version="1.0" encoding="UTF-8" standalone="no"?>
<!DOCTYPE svg PUBLIC "-//W3C//DTD SVG 1.1//EN"
 "http://www.w3.org/Graphics/SVG/1.1/DTD/svg11.dtd">
<!-- Generated by graphviz version 2.26.3 (20100126.1600)
 -->
<!-- Title: models_diagram Pages: 1 -->
<svg width="1894pt" height="1016pt"
 viewBox="0.00 0.00 1894.00 1016.00" xmlns="http://www.w3.org/2000/svg" xmlns:xlink="http://www.w3.org/1999/xlink">
<g id="graph1" class="graph" transform="scale(1 1) rotate(0) translate(4 1012)">
<title>models_diagram</title>
<polygon fill="white" stroke="white" points="-4,5 -4,-1012 1891,-1012 1891,5 -4,5"/>
<!-- _diagram_info -->
<g id="node1" class="node"><title>_diagram_info</title>
<text text-anchor="start" x="8" y="-948.8" font-family="Times Roman,serif" font-size="13.00">Models diagram</text>
<text text-anchor="start" x="8" y="-931.8" font-family="Times Roman,serif" font-size="13.00">Date: Oct 08 2013 &#45; 12:12</text>
<text text-anchor="start" x="8" y="-914.8" font-family="Times Roman,serif" font-size="13.00">Migration version: 20130731041951</text>
<text text-anchor="start" x="8" y="-897.8" font-family="Times Roman,serif" font-size="13.00">Generated by RailRoady 1.1.0</text>
<text text-anchor="start" x="8" y="-880.8" font-family="Times Roman,serif" font-size="13.00">http://railroady.prestonlee.com</text>
</g>
<!-- Employee -->
<g id="node2" class="node"><title>Employee</title>
<polyline fill="none" stroke="black" points="261,-640 439,-640 "/>
<path fill="none" stroke="black" d="M439,-640C445,-640 451,-646 451,-652"/>
<polyline fill="none" stroke="black" points="451,-652 451,-770 "/>
<path fill="none" stroke="black" d="M451,-770C451,-776 445,-782 439,-782"/>
<polyline fill="none" stroke="black" points="439,-782 261,-782 "/>
<path fill="none" stroke="black" d="M261,-782C255,-782 249,-776 249,-770"/>
<polyline fill="none" stroke="black" points="249,-770 249,-652 "/>
<path fill="none" stroke="black" d="M249,-652C249,-646 255,-640 261,-640"/>
<text text-anchor="middle" x="350" y="-765.4" font-family="Times Roman,serif" font-size="14.00">Employee</text>
<polyline fill="none" stroke="black" points="249,-756 451,-756 "/>
<text text-anchor="start" x="257" y="-739.4" font-family="Times Roman,serif" font-size="14.00">id :integer</text>
<text text-anchor="start" x="257" y="-721.4" font-family="Times Roman,serif" font-size="14.00">employer_reference :string</text>
<text text-anchor="start" x="257" y="-703.4" font-family="Times Roman,serif" font-size="14.00">organization_id :integer</text>
<text text-anchor="start" x="257" y="-685.4" font-family="Times Roman,serif" font-size="14.00">person_id :integer</text>
<text text-anchor="start" x="257" y="-667.4" font-family="Times Roman,serif" font-size="14.00">created_at :datetime</text>
<text text-anchor="start" x="257" y="-649.4" font-family="Times Roman,serif" font-size="14.00">updated_at :datetime</text>
</g>
<!-- Resource -->
<g id="node3" class="node"><title>Resource</title>
<polyline fill="none" stroke="black" points="511.5,-856 652.5,-856 "/>
<path fill="none" stroke="black" d="M652.5,-856C658.5,-856 664.5,-862 664.5,-868"/>
<polyline fill="none" stroke="black" points="664.5,-868 664.5,-968 "/>
<path fill="none" stroke="black" d="M664.5,-968C664.5,-974 658.5,-980 652.5,-980"/>
<polyline fill="none" stroke="black" points="652.5,-980 511.5,-980 "/>
<path fill="none" stroke="black" d="M511.5,-980C505.5,-980 499.5,-974 499.5,-968"/>
<polyline fill="none" stroke="black" points="499.5,-968 499.5,-868 "/>
<path fill="none" stroke="black" d="M499.5,-868C499.5,-862 505.5,-856 511.5,-856"/>
<text text-anchor="middle" x="582" y="-963.4" font-family="Times Roman,serif" font-size="14.00">Resource</text>
<polyline fill="none" stroke="black" points="499.5,-954 664.5,-954 "/>
<text text-anchor="start" x="507.5" y="-937.4" font-family="Times Roman,serif" font-size="14.00">id :integer</text>
<text text-anchor="start" x="507.5" y="-919.4" font-family="Times Roman,serif" font-size="14.00">name :string</text>
<text text-anchor="start" x="507.5" y="-901.4" font-family="Times Roman,serif" font-size="14.00">description :text</text>
<text text-anchor="start" x="507.5" y="-883.4" font-family="Times Roman,serif" font-size="14.00">created_at :datetime</text>
<text text-anchor="start" x="507.5" y="-865.4" font-family="Times Roman,serif" font-size="14.00">updated_at :datetime</text>
</g>
<!-- Permission -->
<g id="node9" class="node"><title>Permission</title>
<polyline fill="none" stroke="black" points="561.5,-631 702.5,-631 "/>
<path fill="none" stroke="black" d="M702.5,-631C708.5,-631 714.5,-637 714.5,-643"/>
<polyline fill="none" stroke="black" points="714.5,-643 714.5,-779 "/>
<path fill="none" stroke="black" d="M714.5,-779C714.5,-785 708.5,-791 702.5,-791"/>
<polyline fill="none" stroke="black" points="702.5,-791 561.5,-791 "/>
<path fill="none" stroke="black" d="M561.5,-791C555.5,-791 549.5,-785 549.5,-779"/>
<polyline fill="none" stroke="black" points="549.5,-779 549.5,-643 "/>
<path fill="none" stroke="black" d="M549.5,-643C549.5,-637 555.5,-631 561.5,-631"/>
<text text-anchor="middle" x="632" y="-774.4" font-family="Times Roman,serif" font-size="14.00">Permission</text>
<polyline fill="none" stroke="black" points="549.5,-765 714.5,-765 "/>
<text text-anchor="start" x="557.5" y="-748.4" font-family="Times Roman,serif" font-size="14.00">id :integer</text>
<text text-anchor="start" x="557.5" y="-730.4" font-family="Times Roman,serif" font-size="14.00">name :string</text>
<text text-anchor="start" x="557.5" y="-712.4" font-family="Times Roman,serif" font-size="14.00">description :text</text>
<text text-anchor="start" x="557.5" y="-694.4" font-family="Times Roman,serif" font-size="14.00">created_at :datetime</text>
<text text-anchor="start" x="557.5" y="-676.4" font-family="Times Roman,serif" font-size="14.00">updated_at :datetime</text>
<text text-anchor="start" x="557.5" y="-658.4" font-family="Times Roman,serif" font-size="14.00">action_id :integer</text>
<text text-anchor="start" x="557.5" y="-640.4" font-family="Times Roman,serif" font-size="14.00">resource_id :integer</text>
</g>
<!-- Resource&#45;&gt;Permission -->
<g id="edge2" class="edge"><title>Resource&#45;&gt;Permission</title>
<path fill="none" stroke="#d91cc3" d="M598.992,-847.653C602.596,-832.733 606.448,-816.786 610.202,-801.243"/>
<ellipse fill="none" stroke="#d91cc3" cx="597.941" cy="-852.005" rx="4.00001" ry="4.00001"/>
<polygon fill="#d91cc3" stroke="#d91cc3" points="610.303,-800.824 617.026,-792.16 611.477,-795.964 612.651,-791.103 612.651,-791.103 612.651,-791.103 611.477,-795.964 608.277,-790.047 610.303,-800.824 610.303,-800.824"/>
</g>
<!-- ScorecardAuthorization -->
<g id="node4" class="node"><title>ScorecardAuthorization</title>
<polygon fill="none" stroke="black" points="959.5,-685 959.5,-737 1138.5,-737 1138.5,-685 959.5,-685"/>
<text text-anchor="middle" x="1049" y="-720.4" font-family="Times Roman,serif" font-size="14.00">ScorecardAuthorization</text>
<polyline fill="none" stroke="black" points="959.5,-711 1138.5,-711 "/>
<text text-anchor="middle" x="1049" y="-694.4" font-family="Times Roman,serif" font-size="14.00"> </text>
</g>
<!-- RolePermission -->
<g id="node5" class="node"><title>RolePermission</title>
<polyline fill="none" stroke="black" points="524,-1 668,-1 "/>
<path fill="none" stroke="black" d="M668,-1C674,-1 680,-7 680,-13"/>
<polyline fill="none" stroke="black" points="680,-13 680,-113 "/>
<path fill="none" stroke="black" d="M680,-113C680,-119 674,-125 668,-125"/>
<polyline fill="none" stroke="black" points="668,-125 524,-125 "/>
<path fill="none" stroke="black" d="M524,-125C518,-125 512,-119 512,-113"/>
<polyline fill="none" stroke="black" points="512,-113 512,-13 "/>
<path fill="none" stroke="black" d="M512,-13C512,-7 518,-1 524,-1"/>
<text text-anchor="middle" x="596" y="-108.4" font-family="Times Roman,serif" font-size="14.00">RolePermission</text>
<polyline fill="none" stroke="black" points="512,-99 680,-99 "/>
<text text-anchor="start" x="520" y="-82.4" font-family="Times Roman,serif" font-size="14.00">id :integer</text>
<text text-anchor="start" x="520" y="-64.4" font-family="Times Roman,serif" font-size="14.00">role_id :integer</text>
<text text-anchor="start" x="520" y="-46.4" font-family="Times Roman,serif" font-size="14.00">permission_id :integer</text>
<text text-anchor="start" x="520" y="-28.4" font-family="Times Roman,serif" font-size="14.00">created_at :datetime</text>
<text text-anchor="start" x="520" y="-10.4" font-family="Times Roman,serif" font-size="14.00">updated_at :datetime</text>
</g>
<!-- Member -->
<g id="node6" class="node"><title>Member</title>
<polyline fill="none" stroke="black" points="1263.5,-829 1456.5,-829 "/>
<path fill="none" stroke="black" d="M1456.5,-829C1462.5,-829 1468.5,-835 1468.5,-841"/>
<polyline fill="none" stroke="black" points="1468.5,-841 1468.5,-995 "/>
<path fill="none" stroke="black" d="M1468.5,-995C1468.5,-1001 1462.5,-1007 1456.5,-1007"/>
<polyline fill="none" stroke="black" points="1456.5,-1007 1263.5,-1007 "/>
<path fill="none" stroke="black" d="M1263.5,-1007C1257.5,-1007 1251.5,-1001 1251.5,-995"/>
<polyline fill="none" stroke="black" points="1251.5,-995 1251.5,-841 "/>
<path fill="none" stroke="black" d="M1251.5,-841C1251.5,-835 1257.5,-829 1263.5,-829"/>
<text text-anchor="middle" x="1360" y="-990.4" font-family="Times Roman,serif" font-size="14.00">Member</text>
<polyline fill="none" stroke="black" points="1251.5,-981 1468.5,-981 "/>
<text text-anchor="start" x="1259.5" y="-964.4" font-family="Times Roman,serif" font-size="14.00">id :integer</text>
<text text-anchor="start" x="1259.5" y="-946.4" font-family="Times Roman,serif" font-size="14.00">membership_type_id :integer</text>
<text text-anchor="start" x="1259.5" y="-928.4" font-family="Times Roman,serif" font-size="14.00">employee_id :integer</text>
<text text-anchor="start" x="1259.5" y="-910.4" font-family="Times Roman,serif" font-size="14.00">start_date :date</text>
<text text-anchor="start" x="1259.5" y="-892.4" font-family="Times Roman,serif" font-size="14.00">end_date :date</text>
<text text-anchor="start" x="1259.5" y="-874.4" font-family="Times Roman,serif" font-size="14.00">description :text</text>
<text text-anchor="start" x="1259.5" y="-856.4" font-family="Times Roman,serif" font-size="14.00">created_at :datetime</text>
<text text-anchor="start" x="1259.5" y="-838.4" font-family="Times Roman,serif" font-size="14.00">updated_at :datetime</text>
</g>
<!-- Action -->
<g id="node7" class="node"><title>Action</title>
<polyline fill="none" stroke="black" points="693.5,-856 834.5,-856 "/>
<path fill="none" stroke="black" d="M834.5,-856C840.5,-856 846.5,-862 846.5,-868"/>
<polyline fill="none" stroke="black" points="846.5,-868 846.5,-968 "/>
<path fill="none" stroke="black" d="M846.5,-968C846.5,-974 840.5,-980 834.5,-980"/>
<polyline fill="none" stroke="black" points="834.5,-980 693.5,-980 "/>
<path fill="none" stroke="black" d="M693.5,-980C687.5,-980 681.5,-974 681.5,-968"/>
<polyline fill="none" stroke="black" points="681.5,-968 681.5,-868 "/>
<path fill="none" stroke="black" d="M681.5,-868C681.5,-862 687.5,-856 693.5,-856"/>
<text text-anchor="middle" x="764" y="-963.4" font-family="Times Roman,serif" font-size="14.00">Action</text>
<polyline fill="none" stroke="black" points="681.5,-954 846.5,-954 "/>
<text text-anchor="start" x="689.5" y="-937.4" font-family="Times Roman,serif" font-size="14.00">id :integer</text>
<text text-anchor="start" x="689.5" y="-919.4" font-family="Times Roman,serif" font-size="14.00">name :string</text>
<text text-anchor="start" x="689.5" y="-901.4" font-family="Times Roman,serif" font-size="14.00">description :text</text>
<text text-anchor="start" x="689.5" y="-883.4" font-family="Times Roman,serif" font-size="14.00">created_at :datetime</text>
<text text-anchor="start" x="689.5" y="-865.4" font-family="Times Roman,serif" font-size="14.00">updated_at :datetime</text>
</g>
<!-- Action&#45;&gt;Permission -->
<g id="edge6" class="edge"><title>Action&#45;&gt;Permission</title>
<path fill="none" stroke="#88d849" d="M720.079,-849.125C709.983,-833.291 699.107,-816.236 688.56,-799.697"/>
<ellipse fill="none" stroke="#88d849" cx="722.245" cy="-852.521" rx="4.00002" ry="4.00002"/>
<polygon fill="#88d849" stroke="#88d849" points="688.457,-799.535 686.875,-788.684 685.769,-795.319 683.08,-791.103 683.08,-791.103 683.08,-791.103 685.769,-795.319 679.286,-793.523 688.457,-799.535 688.457,-799.535"/>
</g>
<!-- Organization -->
<g id="node8" class="node"><title>Organization</title>
<polyline fill="none" stroke="black" points="279.5,-856 420.5,-856 "/>
<path fill="none" stroke="black" d="M420.5,-856C426.5,-856 432.5,-862 432.5,-868"/>
<polyline fill="none" stroke="black" points="432.5,-868 432.5,-968 "/>
<path fill="none" stroke="black" d="M432.5,-968C432.5,-974 426.5,-980 420.5,-980"/>
<polyline fill="none" stroke="black" points="420.5,-980 279.5,-980 "/>
<path fill="none" stroke="black" d="M279.5,-980C273.5,-980 267.5,-974 267.5,-968"/>
<polyline fill="none" stroke="black" points="267.5,-968 267.5,-868 "/>
<path fill="none" stroke="black" d="M267.5,-868C267.5,-862 273.5,-856 279.5,-856"/>
<text text-anchor="middle" x="350" y="-963.4" font-family="Times Roman,serif" font-size="14.00">Organization</text>
<polyline fill="none" stroke="black" points="267.5,-954 432.5,-954 "/>
<text text-anchor="start" x="275.5" y="-937.4" font-family="Times Roman,serif" font-size="14.00">id :integer</text>
<text text-anchor="start" x="275.5" y="-919.4" font-family="Times Roman,serif" font-size="14.00">name :string</text>
<text text-anchor="start" x="275.5" y="-901.4" font-family="Times Roman,serif" font-size="14.00">description :text</text>
<text text-anchor="start" x="275.5" y="-883.4" font-family="Times Roman,serif" font-size="14.00">created_at :datetime</text>
<text text-anchor="start" x="275.5" y="-865.4" font-family="Times Roman,serif" font-size="14.00">updated_at :datetime</text>
</g>
<!-- Organization&#45;&gt;Employee -->
<g id="edge8" class="edge"><title>Organization&#45;&gt;Employee</title>
<path fill="none" stroke="#873e43" d="M350,-847.882C350,-830 350,-810.63 350,-792.243"/>
<ellipse fill="none" stroke="#873e43" cx="350" cy="-851.893" rx="4" ry="4"/>
<polygon fill="#873e43" stroke="#873e43" points="350,-792.145 354.5,-782.145 350,-787.145 350,-782.145 350,-782.145 350,-782.145 350,-787.145 345.5,-782.145 350,-792.145 350,-792.145"/>
</g>
<!-- Permission&#45;&gt;RolePermission -->
<g id="edge10" class="edge"><title>Permission&#45;&gt;RolePermission</title>
<path fill="none" stroke="#4b6b2a" d="M625.187,-622.651C624.447,-612.982 623.706,-603.284 623,-594 612.659,-458.009 606.326,-424.237 600,-288 597.63,-236.949 596.637,-179.323 596.234,-135.17"/>
<ellipse fill="none" stroke="#4b6b2a" cx="625.503" cy="-626.767" rx="4" ry="4"/>
<polygon fill="#4b6b2a" stroke="#4b6b2a" points="596.233,-135.107 600.649,-125.069 596.191,-130.107 596.15,-125.107 596.15,-125.107 596.15,-125.107 596.191,-130.107 591.65,-125.145 596.233,-135.107 596.233,-135.107"/>
</g>
<!-- AdminUser -->
<g id="node12" class="node"><title>AdminUser</title>
<polyline fill="none" stroke="black" points="672,-325 902,-325 "/>
<path fill="none" stroke="black" d="M902,-325C908,-325 914,-331 914,-337"/>
<polyline fill="none" stroke="black" points="914,-337 914,-581 "/>
<path fill="none" stroke="black" d="M914,-581C914,-587 908,-593 902,-593"/>
<polyline fill="none" stroke="black" points="902,-593 672,-593 "/>
<path fill="none" stroke="black" d="M672,-593C666,-593 660,-587 660,-581"/>
<polyline fill="none" stroke="black" points="660,-581 660,-337 "/>
<path fill="none" stroke="black" d="M660,-337C660,-331 666,-325 672,-325"/>
<text text-anchor="middle" x="787" y="-576.4" font-family="Times Roman,serif" font-size="14.00">AdminUser</text>
<polyline fill="none" stroke="black" points="660,-567 914,-567 "/>
<text text-anchor="start" x="668" y="-550.4" font-family="Times Roman,serif" font-size="14.00">id :integer</text>
<text text-anchor="start" x="668" y="-532.4" font-family="Times Roman,serif" font-size="14.00">email :string</text>
<text text-anchor="start" x="668" y="-514.4" font-family="Times Roman,serif" font-size="14.00">encrypted_password :string</text>
<text text-anchor="start" x="668" y="-496.4" font-family="Times Roman,serif" font-size="14.00">reset_password_token :string</text>
<text text-anchor="start" x="668" y="-478.4" font-family="Times Roman,serif" font-size="14.00">reset_password_sent_at :datetime</text>
<text text-anchor="start" x="668" y="-460.4" font-family="Times Roman,serif" font-size="14.00">remember_created_at :datetime</text>
<text text-anchor="start" x="668" y="-442.4" font-family="Times Roman,serif" font-size="14.00">sign_in_count :integer</text>
<text text-anchor="start" x="668" y="-424.4" font-family="Times Roman,serif" font-size="14.00">current_sign_in_at :datetime</text>
<text text-anchor="start" x="668" y="-406.4" font-family="Times Roman,serif" font-size="14.00">last_sign_in_at :datetime</text>
<text text-anchor="start" x="668" y="-388.4" font-family="Times Roman,serif" font-size="14.00">current_sign_in_ip :string</text>
<text text-anchor="start" x="668" y="-370.4" font-family="Times Roman,serif" font-size="14.00">last_sign_in_ip :string</text>
<text text-anchor="start" x="668" y="-352.4" font-family="Times Roman,serif" font-size="14.00">created_at :datetime</text>
<text text-anchor="start" x="668" y="-334.4" font-family="Times Roman,serif" font-size="14.00">updated_at :datetime</text>
</g>
<!-- Permission&#45;&gt;AdminUser -->
<g id="edge14" class="edge"><title>Permission&#45;&gt;AdminUser</title>
<path fill="none" stroke="#040805" d="M686.554,-622.306C690.654,-615.64 694.849,-608.82 699.085,-601.932"/>
<polygon fill="#040805" stroke="#040805" points="686.495,-622.402 677.423,-628.562 683.876,-626.66 681.256,-630.919 681.256,-630.919 681.256,-630.919 683.876,-626.66 685.089,-633.277 686.495,-622.402 686.495,-622.402"/>
<polygon fill="#040805" stroke="#040805" points="699.232,-601.694 708.304,-595.534 701.851,-597.435 704.471,-593.177 704.471,-593.177 704.471,-593.177 701.851,-597.435 700.638,-590.819 699.232,-601.694 699.232,-601.694"/>
</g>
<!-- Role -->
<g id="node13" class="node"><title>Role</title>
<polyline fill="none" stroke="black" points="620.5,-163 761.5,-163 "/>
<path fill="none" stroke="black" d="M761.5,-163C767.5,-163 773.5,-169 773.5,-175"/>
<polyline fill="none" stroke="black" points="773.5,-175 773.5,-275 "/>
<path fill="none" stroke="black" d="M773.5,-275C773.5,-281 767.5,-287 761.5,-287"/>
<polyline fill="none" stroke="black" points="761.5,-287 620.5,-287 "/>
<path fill="none" stroke="black" d="M620.5,-287C614.5,-287 608.5,-281 608.5,-275"/>
<polyline fill="none" stroke="black" points="608.5,-275 608.5,-175 "/>
<path fill="none" stroke="black" d="M608.5,-175C608.5,-169 614.5,-163 620.5,-163"/>
<text text-anchor="middle" x="691" y="-270.4" font-family="Times Roman,serif" font-size="14.00">Role</text>
<polyline fill="none" stroke="black" points="608.5,-261 773.5,-261 "/>
<text text-anchor="start" x="616.5" y="-244.4" font-family="Times Roman,serif" font-size="14.00">id :integer</text>
<text text-anchor="start" x="616.5" y="-226.4" font-family="Times Roman,serif" font-size="14.00">name :string</text>
<text text-anchor="start" x="616.5" y="-208.4" font-family="Times Roman,serif" font-size="14.00">description :text</text>
<text text-anchor="start" x="616.5" y="-190.4" font-family="Times Roman,serif" font-size="14.00">created_at :datetime</text>
<text text-anchor="start" x="616.5" y="-172.4" font-family="Times Roman,serif" font-size="14.00">updated_at :datetime</text>
</g>
<!-- Permission&#45;&gt;Role -->
<g id="edge12" class="edge"><title>Permission&#45;&gt;Role</title>
<path fill="none" stroke="#647beb" d="M627.974,-620.241C626.465,-541.088 629.079,-423.657 651,-324 652.974,-315.026 655.683,-305.815 658.769,-296.795"/>
<polygon fill="#647beb" stroke="#647beb" points="627.983,-620.668 623.702,-630.764 628.092,-625.667 628.201,-630.666 628.201,-630.666 628.201,-630.666 628.092,-625.667 632.7,-630.568 627.983,-620.668 627.983,-620.668"/>
<polygon fill="#647beb" stroke="#647beb" points="658.87,-296.516 666.484,-288.625 660.559,-291.81 662.249,-287.104 662.249,-287.104 662.249,-287.104 660.559,-291.81 658.013,-285.583 658.87,-296.516 658.87,-296.516"/>
</g>
<!-- Person -->
<g id="node10" class="node"><title>Person</title>
<polyline fill="none" stroke="black" points="1497.5,-847 1638.5,-847 "/>
<path fill="none" stroke="black" d="M1638.5,-847C1644.5,-847 1650.5,-853 1650.5,-859"/>
<polyline fill="none" stroke="black" points="1650.5,-859 1650.5,-977 "/>
<path fill="none" stroke="black" d="M1650.5,-977C1650.5,-983 1644.5,-989 1638.5,-989"/>
<polyline fill="none" stroke="black" points="1638.5,-989 1497.5,-989 "/>
<path fill="none" stroke="black" d="M1497.5,-989C1491.5,-989 1485.5,-983 1485.5,-977"/>
<polyline fill="none" stroke="black" points="1485.5,-977 1485.5,-859 "/>
<path fill="none" stroke="black" d="M1485.5,-859C1485.5,-853 1491.5,-847 1497.5,-847"/>
<text text-anchor="middle" x="1568" y="-972.4" font-family="Times Roman,serif" font-size="14.00">Person</text>
<polyline fill="none" stroke="black" points="1485.5,-963 1650.5,-963 "/>
<text text-anchor="start" x="1493.5" y="-946.4" font-family="Times Roman,serif" font-size="14.00">id :integer</text>
<text text-anchor="start" x="1493.5" y="-928.4" font-family="Times Roman,serif" font-size="14.00">first_name :string</text>
<text text-anchor="start" x="1493.5" y="-910.4" font-family="Times Roman,serif" font-size="14.00">last_name :string</text>
<text text-anchor="start" x="1493.5" y="-892.4" font-family="Times Roman,serif" font-size="14.00">description :text</text>
<text text-anchor="start" x="1493.5" y="-874.4" font-family="Times Roman,serif" font-size="14.00">created_at :datetime</text>
<text text-anchor="start" x="1493.5" y="-856.4" font-family="Times Roman,serif" font-size="14.00">updated_at :datetime</text>
</g>
<!-- MembershipType -->
<g id="node11" class="node"><title>MembershipType</title>
<polyline fill="none" stroke="black" points="1680,-838 1874,-838 "/>
<path fill="none" stroke="black" d="M1874,-838C1880,-838 1886,-844 1886,-850"/>
<polyline fill="none" stroke="black" points="1886,-850 1886,-986 "/>
<path fill="none" stroke="black" d="M1886,-986C1886,-992 1880,-998 1874,-998"/>
<polyline fill="none" stroke="black" points="1874,-998 1680,-998 "/>
<path fill="none" stroke="black" d="M1680,-998C1674,-998 1668,-992 1668,-986"/>
<polyline fill="none" stroke="black" points="1668,-986 1668,-850 "/>
<path fill="none" stroke="black" d="M1668,-850C1668,-844 1674,-838 1680,-838"/>
<text text-anchor="middle" x="1777" y="-981.4" font-family="Times Roman,serif" font-size="14.00">MembershipType</text>
<polyline fill="none" stroke="black" points="1668,-972 1886,-972 "/>
<text text-anchor="start" x="1676" y="-955.4" font-family="Times Roman,serif" font-size="14.00">id :integer</text>
<text text-anchor="start" x="1676" y="-937.4" font-family="Times Roman,serif" font-size="14.00">name :string</text>
<text text-anchor="start" x="1676" y="-919.4" font-family="Times Roman,serif" font-size="14.00">become_nonfinancial :integer</text>
<text text-anchor="start" x="1676" y="-901.4" font-family="Times Roman,serif" font-size="14.00">become_lapsed :integer</text>
<text text-anchor="start" x="1676" y="-883.4" font-family="Times Roman,serif" font-size="14.00">description :text</text>
<text text-anchor="start" x="1676" y="-865.4" font-family="Times Roman,serif" font-size="14.00">created_at :datetime</text>
<text text-anchor="start" x="1676" y="-847.4" font-family="Times Roman,serif" font-size="14.00">updated_at :datetime</text>
</g>
<!-- AdminUser&#45;&gt;Role -->
<g id="edge18" class="edge"><title>AdminUser&#45;&gt;Role</title>
<path fill="none" stroke="#e28be4" d="M728.12,-315.48C725.49,-309.069 722.906,-302.77 720.402,-296.666"/>
<polygon fill="#e28be4" stroke="#e28be4" points="728.195,-315.664 727.828,-326.624 730.093,-320.29 731.991,-324.916 731.991,-324.916 731.991,-324.916 730.093,-320.29 736.154,-323.208 728.195,-315.664 728.195,-315.664"/>
<polygon fill="#e28be4" stroke="#e28be4" points="720.333,-296.498 720.7,-285.539 718.435,-291.873 716.537,-287.247 716.537,-287.247 716.537,-287.247 718.435,-291.873 712.374,-288.955 720.333,-296.498 720.333,-296.498"/>
</g>
<!-- UserRole -->
<g id="node14" class="node"><title>UserRole</title>
<polyline fill="none" stroke="black" points="718,-1 868,-1 "/>
<path fill="none" stroke="black" d="M868,-1C874,-1 880,-7 880,-13"/>
<polyline fill="none" stroke="black" points="880,-13 880,-113 "/>
<path fill="none" stroke="black" d="M880,-113C880,-119 874,-125 868,-125"/>
<polyline fill="none" stroke="black" points="868,-125 718,-125 "/>
<path fill="none" stroke="black" d="M718,-125C712,-125 706,-119 706,-113"/>
<polyline fill="none" stroke="black" points="706,-113 706,-13 "/>
<path fill="none" stroke="black" d="M706,-13C706,-7 712,-1 718,-1"/>
<text text-anchor="middle" x="793" y="-108.4" font-family="Times Roman,serif" font-size="14.00">UserRole</text>
<polyline fill="none" stroke="black" points="706,-99 880,-99 "/>
<text text-anchor="start" x="714" y="-82.4" font-family="Times Roman,serif" font-size="14.00">id :integer</text>
<text text-anchor="start" x="714" y="-64.4" font-family="Times Roman,serif" font-size="14.00">admin_user_id :integer</text>
<text text-anchor="start" x="714" y="-46.4" font-family="Times Roman,serif" font-size="14.00">role_id :integer</text>
<text text-anchor="start" x="714" y="-28.4" font-family="Times Roman,serif" font-size="14.00">created_at :datetime</text>
<text text-anchor="start" x="714" y="-10.4" font-family="Times Roman,serif" font-size="14.00">updated_at :datetime</text>
</g>
<!-- AdminUser&#45;&gt;UserRole -->
<g id="edge16" class="edge"><title>AdminUser&#45;&gt;UserRole</title>
<path fill="none" stroke="#60d535" d="M789.158,-316.554C790.089,-255.094 791.138,-185.864 791.905,-135.291"/>
<ellipse fill="none" stroke="#60d535" cx="789.092" cy="-320.933" rx="4" ry="4"/>
<polygon fill="#60d535" stroke="#60d535" points="791.907,-135.112 796.558,-125.181 791.983,-130.113 792.059,-125.113 792.059,-125.113 792.059,-125.113 791.983,-130.113 787.559,-125.045 791.907,-135.112 791.907,-135.112"/>
</g>
<!-- Role&#45;&gt;RolePermission -->
<g id="edge22" class="edge"><title>Role&#45;&gt;RolePermission</title>
<path fill="none" stroke="#77440c" d="M650.417,-155.796C646.199,-148.602 641.906,-141.281 637.675,-134.067"/>
<ellipse fill="none" stroke="#77440c" cx="652.519" cy="-159.379" rx="4.00002" ry="4.00002"/>
<polygon fill="#77440c" stroke="#77440c" points="637.419,-133.63 636.242,-122.727 634.89,-129.317 632.36,-125.004 632.36,-125.004 632.36,-125.004 634.89,-129.317 628.478,-127.28 637.419,-133.63 637.419,-133.63"/>
</g>
<!-- Role&#45;&gt;UserRole -->
<g id="edge20" class="edge"><title>Role&#45;&gt;UserRole</title>
<path fill="none" stroke="#fa438f" d="M734.573,-155.796C739.203,-148.442 743.917,-140.956 748.557,-133.586"/>
<ellipse fill="none" stroke="#fa438f" cx="732.275" cy="-159.445" rx="4.00002" ry="4.00002"/>
<polygon fill="#fa438f" stroke="#fa438f" points="748.632,-133.466 757.769,-127.401 751.297,-129.235 753.961,-125.004 753.961,-125.004 753.961,-125.004 751.297,-129.235 750.153,-122.606 748.632,-133.466 748.632,-133.466"/>
</g>
<!-- ActiveAdmin::AuthorizationAdapter -->
<g id="node16" class="node"><title>ActiveAdmin::AuthorizationAdapter</title>
<ellipse fill="none" stroke="black" cx="1049" cy="-918" rx="184.763" ry="18.3848"/>
<text text-anchor="middle" x="1049" y="-914.4" font-family="Times Roman,serif" font-size="14.00">ActiveAdmin::AuthorizationAdapter</text>
</g>
<!-- ActiveAdmin::AuthorizationAdapter&#45;&gt;ScorecardAuthorization -->
<g id="edge4" class="edge"><title>ActiveAdmin::AuthorizationAdapter&#45;&gt;ScorecardAuthorization</title>
<path fill="none" stroke="black" d="M1049,-899.265C1049,-862.243 1049,-779.635 1049,-737.227"/>
</g>
</g>
</svg>
