<?xml version="1.0" encoding="UTF-8" standalone="no"?>
<!DOCTYPE svg PUBLIC "-//W3C//DTD SVG 1.1//EN"
 "http://www.w3.org/Graphics/SVG/1.1/DTD/svg11.dtd">
<!-- Generated by graphviz version 2.26.3 (20100126.1600)
 -->
<!-- Title: models_diagram Pages: 1 -->
<svg width="680pt" height="176pt"
 viewBox="0.00 0.00 680.00 176.00" xmlns="http://www.w3.org/2000/svg" xmlns:xlink="http://www.w3.org/1999/xlink">
<g id="graph1" class="graph" transform="scale(1 1) rotate(0) translate(4 172)">
<title>models_diagram</title>
<polygon fill="white" stroke="white" points="-4,5 -4,-172 677,-172 677,5 -4,5"/>
<!-- _diagram_info -->
<g id="node1" class="node"><title>_diagram_info</title>
<text text-anchor="start" x="8" y="-151.8" font-family="Times Roman,serif" font-size="13.00">Models diagram</text>
<text text-anchor="start" x="8" y="-134.8" font-family="Times Roman,serif" font-size="13.00">Date: Jun 26 2013 &#45; 22:37</text>
<text text-anchor="start" x="8" y="-117.8" font-family="Times Roman,serif" font-size="13.00">Migration version: 20130614035611</text>
<text text-anchor="start" x="8" y="-100.8" font-family="Times Roman,serif" font-size="13.00">Generated by RailRoady 1.1.0</text>
<text text-anchor="start" x="8" y="-83.8" font-family="Times Roman,serif" font-size="13.00">http://railroady.prestonlee.com</text>
</g>
<!-- Employee -->
<g id="node2" class="node"><title>Employee</title>
<ellipse fill="none" stroke="black" cx="343" cy="-19" rx="58.1882" ry="18.3848"/>
<text text-anchor="middle" x="343" y="-15.4" font-family="Times Roman,serif" font-size="14.00">Employee</text>
</g>
<!-- Organization -->
<g id="node3" class="node"><title>Organization</title>
<ellipse fill="none" stroke="black" cx="343" cy="-121" rx="75.1594" ry="18.3848"/>
<text text-anchor="middle" x="343" y="-117.4" font-family="Times Roman,serif" font-size="14.00">Organization</text>
</g>
<!-- Organization&#45;&gt;Employee -->
<g id="edge2" class="edge"><title>Organization&#45;&gt;Employee</title>
<path fill="none" stroke="#34fa0c" d="M343,-94.0151C343,-79.8348 343,-62.4446 343,-47.9795"/>
<ellipse fill="none" stroke="#34fa0c" cx="343" cy="-98.2916" rx="4" ry="4"/>
<polygon fill="#34fa0c" stroke="#34fa0c" points="343,-47.5898 347.5,-37.5897 343,-42.5898 343,-37.5898 343,-37.5898 343,-37.5898 343,-42.5898 338.5,-37.5898 343,-47.5898 343,-47.5898"/>
</g>
<!-- Person -->
<g id="node4" class="node"><title>Person</title>
<ellipse fill="none" stroke="black" cx="480" cy="-121" rx="44.0472" ry="18.3848"/>
<text text-anchor="middle" x="480" y="-117.4" font-family="Times Roman,serif" font-size="14.00">Person</text>
</g>
<!-- AdminUser -->
<g id="node5" class="node"><title>AdminUser</title>
<ellipse fill="none" stroke="black" cx="607" cy="-121" rx="65.0538" ry="18.3848"/>
<text text-anchor="middle" x="607" y="-117.4" font-family="Times Roman,serif" font-size="14.00">AdminUser</text>
</g>
</g>
</svg>
